<svg width="887" height="479" viewBox="0 0 887 479" fill="none" xmlns="http://www.w3.org/2000/svg">
<g clip-path="url(#clip0)">
<g filter="url(#filter0_f)">
<ellipse cx="818.5" cy="471" rx="67.5" ry="3" fill="url(#paint0_linear)"/>
</g>
<g filter="url(#filter1_f)">
<ellipse cx="823" cy="469.5" rx="39" ry="1.5" fill="#1F1F1F"/>
</g>
<path d="M798.104 362.624L751.123 410.891L795.26 403.153L844.571 349.678L798.104 362.624Z" fill="white"/>
<path d="M751.124 410.891L796.115 469L843.501 468.802L795.261 403.153L751.124 410.891Z" fill="url(#paint1_linear)"/>
<path d="M795.261 403.153L843.501 468.802L887 413.222L844.571 349.678L795.261 403.153Z" fill="url(#paint2_linear)"/>
<g style="mix-blend-mode:screen" opacity="0.1">
<g style="mix-blend-mode:screen" opacity="0.1">
<path d="M343.224 265.816L300.249 249.293L282.625 297.863L343.224 265.816Z" fill="#1F1F1F" fill-opacity="0.9"/>
</g>
</g>
<g style="mix-blend-mode:screen" opacity="0.2">
<g style="mix-blend-mode:screen" opacity="0.2">
<path d="M752.875 301.919L752.205 315.416L731.667 302.988L752.875 301.919Z" fill="#1F1F1F" fill-opacity="0.9"/>
</g>
</g>
<g style="mix-blend-mode:screen" opacity="0.2">
<g style="mix-blend-mode:screen" opacity="0.2">
<path d="M603.267 283.093L594.671 254.187L563.915 273.167L603.267 283.093Z" fill="#1F1F1F" fill-opacity="0.9"/>
</g>
</g>
<g style="mix-blend-mode:screen" opacity="0.3">
<g style="mix-blend-mode:screen" opacity="0.3">
<path d="M110.236 322.681L152.618 339.839L152.419 340.351L110.036 323.193L110.236 322.681Z" fill="#1F1F1F" fill-opacity="0.9"/>
</g>
</g>
<g style="mix-blend-mode:screen">
<path d="M775.16 292.281L797.458 362.319L796.943 362.489L774.646 292.451L775.16 292.281Z" fill="#1F1F1F" fill-opacity="0.9"/>
</g>
<g style="mix-blend-mode:screen" opacity="0.3">
<g style="mix-blend-mode:screen" opacity="0.3">
<path d="M728.844 255.607L775.048 293.65L774.708 294.08L728.503 256.037L728.844 255.607Z" fill="#1F1F1F" fill-opacity="0.9"/>
</g>
</g>
<g style="mix-blend-mode:screen" opacity="0.1">
<g style="mix-blend-mode:screen" opacity="0.1">
<path d="M426.097 163.303C427.384 161.159 452.323 122.923 452.323 122.923L397.974 143.314L426.097 163.303Z" fill="#1F1F1F" fill-opacity="0.9"/>
</g>
</g>
<g style="mix-blend-mode:screen" opacity="0.05">
<g style="mix-blend-mode:screen" opacity="0.05">
<path d="M349.387 175.312L314.901 129.613L299.958 167.067L349.387 175.312Z" fill="#1F1F1F" fill-opacity="0.9"/>
</g>
</g>
<g style="mix-blend-mode:screen" opacity="0.05">
<g style="mix-blend-mode:screen" opacity="0.05">
<path d="M266.298 104.191L209.791 150.214L219.717 113.852L266.298 104.191Z" fill="#1F1F1F" fill-opacity="0.9"/>
</g>
</g>
<g style="mix-blend-mode:screen" opacity="0.2">
<g style="mix-blend-mode:screen" opacity="0.2">
<path d="M138.001 138.883L98.2431 168.605L120.717 123.43L138.001 138.883Z" fill="#1F1F1F" fill-opacity="0.9"/>
</g>
</g>
<g style="mix-blend-mode:screen" opacity="0.1">
<g style="mix-blend-mode:screen" opacity="0.1">
<path d="M182.657 248.086L147.116 286.675L95.778 235.537L182.657 248.086Z" fill="#1F1F1F" fill-opacity="0.9"/>
</g>
</g>
<g style="mix-blend-mode:screen" opacity="0.2">
<g style="mix-blend-mode:screen" opacity="0.2">
<path d="M541.565 179.781L523.892 139.275L491.341 184.019L541.565 179.781Z" fill="#1F1F1F" fill-opacity="0.9"/>
</g>
</g>
<g style="mix-blend-mode:screen" opacity="0.2">
<g style="mix-blend-mode:screen" opacity="0.2">
<path d="M420.491 243.259L398.503 206.224L378.23 236.8L420.491 243.259Z" fill="#1F1F1F" fill-opacity="0.9"/>
</g>
</g>
<g style="mix-blend-mode:screen" opacity="0.1">
<g style="mix-blend-mode:screen" opacity="0.1">
<path d="M279.814 204.521L248.609 202.002L299.958 167.067L279.814 204.521Z" fill="#1F1F1F" fill-opacity="0.9"/>
</g>
</g>
<g style="mix-blend-mode:screen" opacity="0.1">
<g style="mix-blend-mode:screen" opacity="0.1">
<path d="M187.566 115.246L196.433 84.2569L146.122 72.3804L187.566 115.246Z" fill="#1F1F1F" fill-opacity="0.9"/>
</g>
</g>
<g style="mix-blend-mode:screen">
<path d="M375.642 237.489C375.257 236.019 376.114 234.509 377.556 234.117C378.999 233.724 380.48 234.598 380.865 236.069C381.25 237.539 380.393 239.049 378.95 239.441C377.508 239.834 376.026 238.96 375.642 237.489Z" fill="#1F1F1F" fill-opacity="0.9"/>
</g>
<g style="mix-blend-mode:screen">
<path d="M421.571 169.879C419.18 168.057 418.69 164.603 420.478 162.165C422.266 159.728 425.654 159.229 428.045 161.051C430.437 162.873 430.926 166.327 429.138 168.765C427.351 171.203 423.963 171.702 421.571 169.879Z" fill="#1F1F1F" fill-opacity="0.9"/>
</g>
<g style="mix-blend-mode:screen">
<path d="M646.96 292.043C647.019 291.275 647.301 290.541 647.769 289.936C648.237 289.33 648.87 288.88 649.589 288.642C650.308 288.404 651.081 288.388 651.808 288.597C652.536 288.806 653.187 289.231 653.678 289.817C654.169 290.403 654.478 291.125 654.567 291.89C654.656 292.656 654.52 293.431 654.176 294.117C653.833 294.804 653.297 295.371 652.637 295.748C651.977 296.124 651.223 296.292 650.469 296.232C649.459 296.15 648.522 295.663 647.864 294.878C647.206 294.092 646.881 293.073 646.96 292.043Z" fill="#1F1F1F" fill-opacity="0.9"/>
</g>
<g style="mix-blend-mode:screen">
<path d="M191.042 83.8215C191.127 82.735 191.525 81.6985 192.188 80.8429C192.85 79.9874 193.747 79.3513 194.764 79.0151C195.781 78.6789 196.873 78.6577 197.902 78.9542C198.931 79.2506 199.85 79.8514 200.544 80.6806C201.238 81.5098 201.676 82.5301 201.801 83.6125C201.926 84.695 201.733 85.791 201.247 86.7619C200.762 87.7328 200.004 88.535 199.071 89.0672C198.138 89.5993 197.071 89.8375 196.005 89.7515C195.297 89.6944 194.607 89.4958 193.975 89.1668C193.342 88.8379 192.78 88.3852 192.319 87.8345C191.858 87.2838 191.508 86.646 191.289 85.9575C191.07 85.2689 190.986 84.5431 191.042 83.8215Z" fill="#1F1F1F" fill-opacity="0.9"/>
</g>
<g style="mix-blend-mode:screen">
<path d="M346.695 175.097C346.737 174.554 346.937 174.035 347.268 173.608C347.599 173.18 348.047 172.862 348.556 172.694C349.064 172.526 349.61 172.515 350.125 172.663C350.639 172.811 351.099 173.112 351.446 173.526C351.793 173.941 352.012 174.451 352.074 174.992C352.137 175.534 352.04 176.082 351.798 176.567C351.555 177.052 351.176 177.454 350.709 177.72C350.243 177.986 349.709 178.105 349.176 178.062C348.822 178.033 348.477 177.934 348.161 177.77C347.845 177.605 347.564 177.379 347.333 177.103C347.103 176.828 346.928 176.509 346.818 176.165C346.709 175.821 346.667 175.458 346.695 175.097Z" fill="#1F1F1F" fill-opacity="0.9"/>
</g>
<g style="mix-blend-mode:screen">
<path d="M179.965 247.866C180.007 247.323 180.207 246.804 180.538 246.377C180.869 245.949 181.317 245.631 181.826 245.463C182.334 245.295 182.88 245.284 183.395 245.432C183.909 245.58 184.369 245.881 184.716 246.295C185.063 246.71 185.282 247.22 185.344 247.761C185.407 248.303 185.31 248.851 185.068 249.336C184.825 249.821 184.446 250.223 183.979 250.489C183.513 250.755 182.979 250.874 182.446 250.831C182.093 250.802 181.748 250.703 181.431 250.538C181.115 250.374 180.834 250.148 180.603 249.872C180.373 249.597 180.198 249.278 180.088 248.934C179.979 248.59 179.937 248.227 179.965 247.866Z" fill="#1F1F1F" fill-opacity="0.9"/>
</g>
<g style="mix-blend-mode:screen">
<path d="M207.099 149.994C207.142 149.45 207.341 148.932 207.672 148.504C208.003 148.077 208.452 147.759 208.96 147.59C209.469 147.422 210.015 147.412 210.529 147.56C211.044 147.708 211.503 148.009 211.85 148.423C212.197 148.838 212.416 149.348 212.478 149.889C212.541 150.43 212.445 150.978 212.202 151.464C211.959 151.949 211.58 152.35 211.114 152.616C210.647 152.883 210.114 153.002 209.581 152.959C209.227 152.93 208.882 152.831 208.566 152.666C208.249 152.502 207.968 152.275 207.738 152C207.507 151.725 207.332 151.406 207.223 151.062C207.113 150.717 207.071 150.354 207.099 149.994Z" fill="#1F1F1F" fill-opacity="0.9"/>
</g>
<g style="mix-blend-mode:screen">
<path d="M95.4225 239.969C93.0424 239.763 91.2764 237.63 91.4779 235.203C91.6794 232.777 93.7723 230.977 96.1524 231.182C98.5325 231.388 100.299 233.521 100.097 235.947C99.8955 238.374 97.8026 240.174 95.4225 239.969Z" fill="#1F1F1F" fill-opacity="0.9"/>
</g>
<g style="mix-blend-mode:screen">
<path d="M313.284 129.481C313.31 129.155 313.429 128.844 313.628 128.588C313.827 128.331 314.097 128.141 314.402 128.04C314.707 127.94 315.035 127.933 315.343 128.023C315.652 128.112 315.928 128.293 316.136 128.541C316.344 128.79 316.474 129.097 316.512 129.422C316.549 129.746 316.491 130.075 316.344 130.366C316.198 130.657 315.971 130.898 315.691 131.057C315.411 131.216 315.09 131.288 314.771 131.261C314.342 131.226 313.945 131.019 313.666 130.685C313.387 130.351 313.25 129.918 313.284 129.481Z" fill="#1F1F1F" fill-opacity="0.9"/>
</g>
<g style="mix-blend-mode:screen">
<path d="M184.868 115.031C184.911 114.488 185.11 113.97 185.441 113.542C185.772 113.114 186.221 112.796 186.729 112.628C187.238 112.46 187.784 112.449 188.298 112.597C188.813 112.746 189.272 113.046 189.619 113.461C189.966 113.875 190.185 114.385 190.248 114.927C190.31 115.468 190.214 116.016 189.971 116.501C189.728 116.987 189.349 117.388 188.883 117.654C188.416 117.92 187.883 118.039 187.35 117.996C186.996 117.968 186.651 117.868 186.335 117.704C186.018 117.539 185.737 117.313 185.506 117.038C185.276 116.762 185.101 116.443 184.992 116.099C184.882 115.755 184.84 115.392 184.868 115.031Z" fill="#1F1F1F" fill-opacity="0.9"/>
</g>
<g style="mix-blend-mode:screen">
<path d="M299.774 164.317C300.307 164.28 300.839 164.405 301.303 164.677C301.766 164.948 302.14 165.353 302.378 165.842C302.616 166.33 302.706 166.879 302.637 167.419C302.569 167.96 302.345 168.467 301.993 168.878C301.642 169.288 301.179 169.584 300.663 169.726C300.147 169.869 299.601 169.852 299.095 169.678C298.588 169.504 298.143 169.181 297.817 168.75C297.49 168.319 297.296 167.798 297.26 167.254C297.235 166.893 297.281 166.531 297.394 166.188C297.508 165.845 297.686 165.528 297.92 165.255C298.153 164.982 298.437 164.759 298.755 164.598C299.073 164.437 299.419 164.342 299.774 164.317Z" fill="#1F1F1F" fill-opacity="0.9"/>
</g>
<g style="mix-blend-mode:screen">
<path d="M330.044 204.752C330.791 204.701 331.536 204.876 332.185 205.256C332.834 205.636 333.358 206.204 333.691 206.888C334.023 207.571 334.149 208.34 334.053 209.097C333.957 209.854 333.642 210.565 333.15 211.14C332.657 211.714 332.008 212.127 331.286 212.326C330.563 212.525 329.798 212.5 329.089 212.256C328.38 212.012 327.757 211.559 327.301 210.954C326.844 210.349 326.574 209.62 326.524 208.858C326.457 207.838 326.79 206.833 327.45 206.063C328.11 205.293 329.043 204.822 330.044 204.752Z" fill="#1F1F1F" fill-opacity="0.9"/>
</g>
<g style="mix-blend-mode:screen">
<path d="M457.681 203.832C458.001 203.81 458.32 203.885 458.598 204.048C458.876 204.21 459.101 204.454 459.244 204.746C459.386 205.039 459.44 205.369 459.399 205.693C459.358 206.017 459.224 206.322 459.013 206.568C458.802 206.814 458.525 206.992 458.215 207.077C457.906 207.163 457.578 207.153 457.274 207.049C456.97 206.945 456.703 206.751 456.507 206.492C456.311 206.234 456.195 205.922 456.173 205.595C456.158 205.379 456.185 205.161 456.253 204.955C456.321 204.749 456.428 204.559 456.568 204.395C456.708 204.231 456.879 204.097 457.07 204.001C457.261 203.904 457.468 203.847 457.681 203.832Z" fill="#1F1F1F" fill-opacity="0.9"/>
</g>
<g style="mix-blend-mode:screen">
<path d="M452.139 120.173C452.673 120.136 453.205 120.261 453.669 120.533C454.133 120.804 454.507 121.21 454.745 121.698C454.982 122.187 455.072 122.736 455.003 123.277C454.935 123.817 454.71 124.325 454.358 124.736C454.006 125.146 453.543 125.441 453.026 125.583C452.51 125.725 451.964 125.707 451.457 125.533C450.95 125.358 450.506 125.034 450.18 124.602C449.854 124.17 449.661 123.649 449.625 123.105C449.578 122.376 449.816 121.658 450.287 121.109C450.759 120.559 451.425 120.222 452.139 120.173Z" fill="#1F1F1F" fill-opacity="0.9"/>
</g>
<g style="mix-blend-mode:screen">
<path d="M594.487 251.437C595.02 251.4 595.552 251.525 596.016 251.797C596.48 252.068 596.854 252.473 597.091 252.962C597.329 253.45 597.419 253.999 597.351 254.539C597.282 255.08 597.058 255.587 596.707 255.998C596.355 256.408 595.892 256.704 595.377 256.846C594.861 256.988 594.315 256.972 593.808 256.798C593.301 256.624 592.857 256.301 592.53 255.87C592.203 255.439 592.01 254.918 591.973 254.374C591.949 254.013 591.995 253.651 592.108 253.308C592.221 252.965 592.4 252.648 592.633 252.375C592.867 252.102 593.15 251.879 593.469 251.718C593.787 251.557 594.133 251.462 594.487 251.437Z" fill="#1F1F1F" fill-opacity="0.9"/>
</g>
<g style="mix-blend-mode:screen">
<path d="M731.488 300.238C732.022 300.202 732.553 300.328 733.016 300.601C733.48 300.873 733.853 301.279 734.09 301.768C734.326 302.256 734.416 302.806 734.346 303.346C734.277 303.886 734.052 304.393 733.699 304.803C733.347 305.213 732.884 305.508 732.367 305.649C731.851 305.79 731.305 305.772 730.799 305.598C730.292 305.423 729.848 305.099 729.523 304.667C729.197 304.235 729.004 303.714 728.969 303.17C728.945 302.809 728.992 302.447 729.106 302.104C729.22 301.761 729.399 301.444 729.633 301.172C729.867 300.9 730.151 300.677 730.469 300.517C730.788 300.357 731.134 300.262 731.488 300.238Z" fill="#1F1F1F" fill-opacity="0.9"/>
</g>
<g style="mix-blend-mode:screen">
<path d="M251.842 251.349C251.884 250.806 252.083 250.287 252.414 249.86C252.746 249.432 253.194 249.114 253.702 248.946C254.211 248.778 254.757 248.767 255.271 248.915C255.786 249.063 256.246 249.364 256.593 249.778C256.94 250.193 257.158 250.703 257.221 251.244C257.283 251.786 257.187 252.334 256.944 252.819C256.701 253.305 256.322 253.706 255.856 253.972C255.389 254.238 254.856 254.357 254.323 254.314C253.969 254.285 253.624 254.186 253.308 254.022C252.992 253.857 252.71 253.631 252.48 253.355C252.249 253.08 252.074 252.761 251.965 252.417C251.855 252.073 251.814 251.71 251.842 251.349Z" fill="#1F1F1F" fill-opacity="0.9"/>
</g>
<g style="mix-blend-mode:screen">
<path d="M107.412 322.724C107.455 322.18 107.654 321.662 107.985 321.234C108.316 320.806 108.765 320.488 109.273 320.32C109.782 320.152 110.328 320.142 110.842 320.29C111.357 320.438 111.816 320.739 112.163 321.153C112.51 321.568 112.729 322.078 112.791 322.619C112.854 323.16 112.758 323.708 112.515 324.194C112.272 324.679 111.893 325.08 111.427 325.346C110.96 325.612 110.427 325.732 109.894 325.689C109.54 325.66 109.195 325.561 108.879 325.396C108.562 325.232 108.281 325.005 108.051 324.73C107.82 324.455 107.645 324.136 107.536 323.792C107.426 323.447 107.384 323.084 107.412 322.724Z" fill="#1F1F1F" fill-opacity="0.9"/>
</g>
<g style="mix-blend-mode:screen">
<path d="M206.888 201.396C206.913 201.07 207.032 200.758 207.23 200.501C207.429 200.244 207.698 200.052 208.003 199.951C208.308 199.849 208.636 199.842 208.945 199.931C209.254 200.02 209.53 200.2 209.739 200.449C209.947 200.698 210.079 201.004 210.116 201.329C210.154 201.654 210.096 201.983 209.95 202.275C209.804 202.566 209.576 202.807 209.296 202.966C209.016 203.126 208.695 203.197 208.375 203.171C207.947 203.135 207.551 202.929 207.272 202.596C206.994 202.264 206.856 201.832 206.888 201.396Z" fill="#1F1F1F" fill-opacity="0.9"/>
</g>
<g style="mix-blend-mode:screen">
<path d="M135.309 138.668C135.351 138.125 135.551 137.607 135.882 137.179C136.213 136.751 136.662 136.433 137.17 136.265C137.679 136.097 138.225 136.086 138.739 136.235C139.254 136.383 139.713 136.683 140.06 137.098C140.407 137.512 140.626 138.023 140.688 138.564C140.751 139.105 140.655 139.653 140.412 140.138C140.169 140.624 139.79 141.025 139.324 141.291C138.857 141.557 138.324 141.676 137.791 141.633C137.437 141.605 137.092 141.505 136.776 141.341C136.459 141.176 136.178 140.95 135.947 140.675C135.717 140.399 135.542 140.081 135.433 139.736C135.323 139.392 135.281 139.029 135.309 138.668Z" fill="#1F1F1F" fill-opacity="0.9"/>
</g>
<g style="mix-blend-mode:screen">
<path d="M521.194 139.054C521.236 138.511 521.436 137.993 521.767 137.565C522.098 137.137 522.546 136.819 523.055 136.651C523.563 136.483 524.109 136.472 524.624 136.62C525.138 136.769 525.598 137.069 525.945 137.484C526.292 137.898 526.511 138.408 526.573 138.95C526.636 139.491 526.54 140.039 526.297 140.524C526.054 141.01 525.675 141.411 525.208 141.677C524.742 141.943 524.208 142.062 523.676 142.019C523.322 141.991 522.977 141.891 522.66 141.727C522.344 141.562 522.063 141.336 521.832 141.061C521.602 140.785 521.427 140.466 521.317 140.122C521.208 139.778 521.166 139.415 521.194 139.054Z" fill="#1F1F1F" fill-opacity="0.9"/>
</g>
<g style="mix-blend-mode:screen">
<path d="M583.242 202.779C583.284 202.236 583.484 201.718 583.815 201.29C584.146 200.862 584.594 200.544 585.103 200.376C585.611 200.208 586.157 200.197 586.672 200.346C587.186 200.494 587.646 200.794 587.993 201.209C588.34 201.623 588.558 202.134 588.621 202.675C588.684 203.216 588.587 203.764 588.344 204.249C588.102 204.735 587.723 205.136 587.256 205.402C586.79 205.668 586.256 205.787 585.723 205.744C585.369 205.716 585.024 205.616 584.708 205.452C584.392 205.287 584.111 205.061 583.88 204.786C583.65 204.51 583.475 204.192 583.365 203.847C583.256 203.503 583.214 203.14 583.242 202.779Z" fill="#1F1F1F" fill-opacity="0.9"/>
</g>
<g style="mix-blend-mode:screen">
<path d="M693.417 269.227C693.459 268.684 693.659 268.165 693.99 267.738C694.321 267.31 694.769 266.992 695.278 266.824C695.787 266.656 696.333 266.645 696.847 266.793C697.361 266.942 697.821 267.242 698.168 267.657C698.515 268.071 698.734 268.581 698.796 269.122C698.859 269.664 698.763 270.212 698.52 270.697C698.277 271.183 697.898 271.584 697.432 271.85C696.965 272.116 696.432 272.235 695.899 272.192C695.545 272.163 695.2 272.064 694.883 271.9C694.567 271.735 694.286 271.509 694.055 271.233C693.825 270.958 693.65 270.639 693.54 270.295C693.431 269.951 693.389 269.588 693.417 269.227Z" fill="#1F1F1F" fill-opacity="0.9"/>
</g>
<g style="mix-blend-mode:screen">
<path d="M794.504 362.172C794.546 361.629 794.746 361.111 795.077 360.683C795.408 360.255 795.856 359.937 796.365 359.769C796.873 359.601 797.419 359.59 797.934 359.739C798.448 359.887 798.908 360.187 799.255 360.602C799.602 361.016 799.821 361.526 799.883 362.068C799.946 362.609 799.85 363.157 799.607 363.642C799.364 364.128 798.985 364.529 798.518 364.795C798.052 365.061 797.518 365.18 796.986 365.137C796.632 365.109 796.287 365.009 795.97 364.845C795.654 364.68 795.373 364.454 795.142 364.179C794.912 363.903 794.737 363.584 794.627 363.24C794.518 362.896 794.476 362.533 794.504 362.172Z" fill="#1F1F1F" fill-opacity="0.9"/>
</g>
<g style="mix-blend-mode:screen">
<path d="M549.821 214.854C549.845 214.528 549.964 214.217 550.162 213.959C550.36 213.702 550.629 213.511 550.933 213.409C551.238 213.307 551.566 213.3 551.875 213.388C552.184 213.476 552.46 213.656 552.669 213.904C552.878 214.153 553.01 214.459 553.048 214.783C553.086 215.108 553.029 215.437 552.884 215.729C552.739 216.02 552.512 216.261 552.232 216.422C551.953 216.582 551.633 216.654 551.313 216.629C550.884 216.595 550.486 216.389 550.206 216.056C549.926 215.724 549.788 215.291 549.821 214.854Z" fill="#1F1F1F" fill-opacity="0.9"/>
</g>
<g style="mix-blend-mode:screen">
<path d="M670.75 324.801C670.646 323.894 671.283 323.073 672.173 322.967C673.063 322.861 673.868 323.51 673.972 324.417C674.076 325.324 673.439 326.145 672.549 326.251C671.66 326.357 670.854 325.708 670.75 324.801Z" fill="#1F1F1F" fill-opacity="0.9"/>
</g>
<g style="mix-blend-mode:screen">
<path d="M751.259 301.792C751.284 301.466 751.403 301.154 751.601 300.897C751.799 300.64 752.068 300.448 752.374 300.347C752.679 300.245 753.007 300.239 753.316 300.327C753.625 300.416 753.901 300.596 754.109 300.845C754.318 301.094 754.449 301.4 754.487 301.725C754.524 302.05 754.467 302.379 754.321 302.671C754.175 302.962 753.947 303.203 753.667 303.363C753.386 303.522 753.066 303.593 752.746 303.567C752.318 303.532 751.921 303.325 751.643 302.993C751.364 302.66 751.226 302.228 751.259 301.792Z" fill="#1F1F1F" fill-opacity="0.9"/>
</g>
<g style="mix-blend-mode:screen">
<path d="M538.873 179.583C538.915 179.04 539.114 178.521 539.446 178.094C539.777 177.666 540.225 177.348 540.734 177.18C541.242 177.012 541.788 177.001 542.303 177.149C542.817 177.297 543.277 177.598 543.624 178.012C543.971 178.427 544.189 178.937 544.252 179.478C544.314 180.02 544.218 180.568 543.975 181.053C543.732 181.539 543.354 181.94 542.887 182.206C542.421 182.472 541.887 182.591 541.354 182.548C541 182.519 540.655 182.42 540.339 182.256C540.023 182.091 539.741 181.865 539.511 181.589C539.28 181.314 539.106 180.995 538.996 180.651C538.887 180.307 538.845 179.944 538.873 179.583Z" fill="#1F1F1F" fill-opacity="0.9"/>
</g>
<g style="mix-blend-mode:screen">
<path d="M515.328 227.414C513.264 227.078 511.858 225.099 512.189 222.996C512.519 220.892 514.46 219.459 516.523 219.796C518.587 220.132 519.993 222.111 519.662 224.215C519.332 226.318 517.391 227.751 515.328 227.414Z" fill="#1F1F1F" fill-opacity="0.9"/>
</g>
<g style="mix-blend-mode:screen">
<path d="M488.648 183.799C488.69 183.256 488.89 182.737 489.221 182.31C489.552 181.882 490.001 181.564 490.509 181.396C491.018 181.228 491.564 181.217 492.078 181.365C492.592 181.513 493.052 181.814 493.399 182.228C493.746 182.643 493.965 183.153 494.027 183.694C494.09 184.236 493.994 184.784 493.751 185.269C493.508 185.755 493.129 186.156 492.663 186.422C492.196 186.688 491.663 186.807 491.13 186.764C490.776 186.735 490.431 186.636 490.114 186.472C489.798 186.307 489.517 186.081 489.286 185.805C489.056 185.53 488.881 185.211 488.772 184.867C488.662 184.523 488.62 184.16 488.648 183.799Z" fill="#1F1F1F" fill-opacity="0.9"/>
</g>
<g style="mix-blend-mode:screen">
<path d="M395.281 143.088C395.324 142.545 395.523 142.027 395.854 141.599C396.185 141.171 396.634 140.853 397.142 140.685C397.651 140.517 398.197 140.506 398.711 140.655C399.226 140.803 399.685 141.103 400.032 141.518C400.379 141.932 400.598 142.442 400.661 142.984C400.723 143.525 400.627 144.073 400.384 144.558C400.141 145.044 399.762 145.445 399.296 145.711C398.829 145.977 398.296 146.096 397.763 146.053C397.409 146.025 397.064 145.925 396.748 145.761C396.431 145.596 396.15 145.37 395.92 145.095C395.689 144.819 395.514 144.5 395.405 144.156C395.295 143.812 395.253 143.449 395.281 143.088Z" fill="#1F1F1F" fill-opacity="0.9"/>
</g>
<g style="mix-blend-mode:screen">
<path d="M395.811 206.003C395.854 205.46 396.053 204.942 396.384 204.514C396.715 204.086 397.164 203.768 397.672 203.6C398.181 203.432 398.727 203.421 399.241 203.57C399.756 203.718 400.215 204.018 400.562 204.433C400.909 204.847 401.128 205.358 401.19 205.899C401.253 206.44 401.157 206.988 400.914 207.473C400.671 207.959 400.292 208.36 399.826 208.626C399.359 208.892 398.826 209.011 398.293 208.968C397.939 208.94 397.594 208.84 397.278 208.676C396.961 208.511 396.68 208.285 396.449 208.01C396.219 207.734 396.044 207.416 395.935 207.071C395.825 206.727 395.783 206.364 395.811 206.003Z" fill="#1F1F1F" fill-opacity="0.9"/>
</g>
<g style="mix-blend-mode:screen">
<path d="M297.557 249.078C297.6 248.535 297.799 248.017 298.13 247.589C298.461 247.161 298.91 246.843 299.418 246.675C299.927 246.507 300.473 246.496 300.987 246.645C301.502 246.793 301.961 247.093 302.308 247.508C302.655 247.922 302.874 248.433 302.936 248.974C302.999 249.515 302.903 250.063 302.66 250.548C302.417 251.034 302.038 251.435 301.572 251.701C301.105 251.967 300.572 252.086 300.039 252.043C299.685 252.015 299.34 251.915 299.024 251.751C298.707 251.586 298.426 251.36 298.196 251.085C297.965 250.809 297.79 250.491 297.681 250.146C297.571 249.802 297.529 249.439 297.557 249.078Z" fill="#1F1F1F" fill-opacity="0.9"/>
</g>
<g style="mix-blend-mode:screen">
<path d="M206.24 303.214C206.265 302.888 206.385 302.578 206.584 302.321C206.782 302.065 207.051 301.874 207.356 301.773C207.661 301.672 207.988 301.666 208.297 301.755C208.606 301.843 208.881 302.023 209.09 302.272C209.298 302.52 209.429 302.826 209.467 303.15C209.505 303.475 209.448 303.804 209.302 304.095C209.157 304.386 208.93 304.627 208.651 304.787C208.371 304.947 208.052 305.019 207.732 304.994C207.519 304.978 207.312 304.918 207.122 304.82C206.931 304.721 206.762 304.585 206.623 304.42C206.485 304.254 206.38 304.063 206.314 303.856C206.248 303.649 206.223 303.431 206.24 303.214Z" fill="#1F1F1F" fill-opacity="0.9"/>
</g>
<g style="mix-blend-mode:screen">
<path d="M341.608 265.683C341.633 265.357 341.753 265.046 341.952 264.79C342.151 264.533 342.42 264.343 342.725 264.242C343.031 264.142 343.358 264.136 343.667 264.225C343.976 264.314 344.251 264.495 344.459 264.744C344.667 264.993 344.798 265.299 344.835 265.624C344.872 265.948 344.814 266.277 344.668 266.568C344.522 266.86 344.295 267.1 344.014 267.259C343.734 267.419 343.414 267.49 343.094 267.463C342.666 267.428 342.268 267.221 341.989 266.887C341.711 266.553 341.573 266.12 341.608 265.683Z" fill="#1F1F1F" fill-opacity="0.9"/>
</g>
<g style="mix-blend-mode:screen">
<path d="M468.364 254.672C468.389 254.346 468.509 254.036 468.708 253.779C468.906 253.523 469.175 253.332 469.48 253.231C469.785 253.13 470.113 253.124 470.421 253.212C470.73 253.301 471.005 253.481 471.214 253.73C471.422 253.978 471.553 254.284 471.591 254.608C471.629 254.933 471.572 255.262 471.426 255.553C471.281 255.844 471.054 256.085 470.775 256.245C470.495 256.405 470.176 256.477 469.856 256.452C469.643 256.435 469.436 256.376 469.246 256.278C469.055 256.179 468.886 256.043 468.748 255.878C468.609 255.712 468.504 255.521 468.438 255.314C468.372 255.107 468.347 254.889 468.364 254.672Z" fill="#1F1F1F" fill-opacity="0.9"/>
</g>
<g style="mix-blend-mode:screen">
<path d="M244.289 45.6624C244.315 45.3365 244.434 45.0256 244.633 44.769C244.832 44.5125 245.101 44.3219 245.407 44.2213C245.712 44.1207 246.04 44.1147 246.348 44.2039C246.657 44.2932 246.932 44.4737 247.14 44.7227C247.348 44.9717 247.479 45.278 247.516 45.6028C247.554 45.9276 247.495 46.2564 247.349 46.5475C247.203 46.8386 246.976 47.0791 246.696 47.2384C246.416 47.3977 246.095 47.4687 245.776 47.4425C245.347 47.4074 244.949 47.2001 244.671 46.8663C244.392 46.5325 244.255 46.0995 244.289 45.6624Z" fill="#1F1F1F" fill-opacity="0.9"/>
</g>
<g style="mix-blend-mode:screen">
<path d="M106.299 9.23387C106.323 8.90756 106.442 8.59603 106.641 8.33873C106.839 8.08143 107.108 7.88994 107.413 7.78852C107.718 7.6871 108.046 7.6803 108.355 7.76899C108.664 7.85768 108.941 8.03787 109.149 8.28674C109.358 8.5356 109.489 8.84194 109.526 9.16696C109.564 9.49198 109.506 9.82106 109.36 10.1125C109.214 10.404 108.986 10.6447 108.706 10.8042C108.426 10.9637 108.105 11.0348 107.785 11.0085C107.358 10.9733 106.961 10.7668 106.683 10.4342C106.404 10.1016 106.266 9.66998 106.299 9.23387Z" fill="#1F1F1F" fill-opacity="0.9"/>
</g>
<g style="mix-blend-mode:screen">
<path d="M382.971 86.2299C382.997 85.9039 383.117 85.593 383.316 85.3365C383.515 85.08 383.784 84.8894 384.089 84.7888C384.394 84.6882 384.722 84.6821 385.031 84.7714C385.339 84.8606 385.615 85.0412 385.823 85.2902C386.031 85.5392 386.162 85.8454 386.199 86.1702C386.236 86.495 386.178 86.8238 386.032 87.1149C385.886 87.4061 385.658 87.6465 385.378 87.8058C385.098 87.9651 384.778 88.0362 384.458 88.01C384.029 87.9748 383.632 87.7676 383.353 87.4338C383.074 87.0999 382.937 86.6669 382.971 86.2299Z" fill="#1F1F1F" fill-opacity="0.9"/>
</g>
<g style="mix-blend-mode:screen">
<path d="M497.93 117.858C497.955 117.532 498.074 117.221 498.272 116.964C498.47 116.706 498.738 116.515 499.043 116.413C499.348 116.311 499.676 116.304 499.985 116.392C500.294 116.481 500.57 116.66 500.779 116.908C500.988 117.157 501.12 117.463 501.158 117.787C501.196 118.112 501.139 118.441 500.994 118.733C500.849 119.024 500.622 119.266 500.342 119.426C500.062 119.586 499.742 119.658 499.423 119.633C498.994 119.599 498.596 119.393 498.316 119.06C498.036 118.728 497.898 118.295 497.93 117.858Z" fill="#1F1F1F" fill-opacity="0.9"/>
</g>
<g style="mix-blend-mode:screen">
<path d="M613.442 236.667C613.467 236.341 613.587 236.03 613.786 235.774C613.985 235.517 614.254 235.327 614.559 235.226C614.865 235.126 615.192 235.119 615.501 235.209C615.81 235.298 616.085 235.479 616.293 235.728C616.501 235.977 616.632 236.283 616.669 236.608C616.706 236.932 616.648 237.261 616.502 237.552C616.356 237.843 616.129 238.084 615.848 238.243C615.568 238.403 615.248 238.474 614.928 238.447C614.5 238.412 614.102 238.205 613.823 237.871C613.545 237.537 613.407 237.104 613.442 236.667Z" fill="#1F1F1F" fill-opacity="0.9"/>
</g>
<g style="mix-blend-mode:screen">
<path d="M311.895 324.465C311.919 324.139 312.038 323.827 312.237 323.57C312.435 323.313 312.704 323.121 313.009 323.02C313.315 322.918 313.642 322.911 313.951 323C314.26 323.089 314.537 323.269 314.745 323.518C314.954 323.767 315.085 324.073 315.123 324.398C315.16 324.723 315.102 325.052 314.956 325.344C314.81 325.635 314.583 325.876 314.302 326.035C314.022 326.195 313.701 326.266 313.381 326.24C312.954 326.204 312.557 325.998 312.279 325.665C312 325.333 311.862 324.901 311.895 324.465Z" fill="#1F1F1F" fill-opacity="0.9"/>
</g>
<g style="mix-blend-mode:screen">
<path d="M321.14 71.697C321.165 71.3711 321.285 71.0601 321.484 70.8036C321.683 70.5471 321.952 70.3565 322.257 70.2559C322.562 70.1553 322.89 70.1493 323.199 70.2385C323.507 70.3278 323.783 70.5083 323.991 70.7573C324.199 71.0063 324.33 71.3126 324.367 71.6374C324.404 71.9622 324.346 72.291 324.2 72.5821C324.054 72.8732 323.826 73.1136 323.546 73.273C323.266 73.4323 322.946 73.5033 322.626 73.4771C322.197 73.442 321.8 73.2347 321.521 72.9009C321.242 72.5671 321.105 72.134 321.14 71.697Z" fill="#1F1F1F" fill-opacity="0.9"/>
</g>
<g style="mix-blend-mode:screen">
<path d="M492.427 304.867C492.452 304.542 492.572 304.231 492.771 303.974C492.969 303.718 493.238 303.527 493.543 303.426C493.848 303.326 494.176 303.319 494.484 303.408C494.793 303.497 495.068 303.677 495.277 303.925C495.485 304.173 495.616 304.479 495.654 304.804C495.692 305.128 495.635 305.457 495.489 305.748C495.344 306.04 495.117 306.281 494.838 306.441C494.558 306.601 494.239 306.673 493.919 306.648C493.706 306.631 493.499 306.572 493.309 306.473C493.118 306.374 492.949 306.239 492.811 306.073C492.672 305.908 492.567 305.716 492.501 305.509C492.435 305.302 492.41 305.084 492.427 304.867Z" fill="#1F1F1F" fill-opacity="0.9"/>
</g>
<g style="mix-blend-mode:screen">
<path d="M631.58 228.77C631.604 228.443 631.723 228.132 631.922 227.875C632.12 227.617 632.389 227.426 632.694 227.324C633 227.223 633.327 227.216 633.636 227.305C633.946 227.394 634.222 227.574 634.43 227.823C634.639 228.072 634.77 228.378 634.808 228.703C634.845 229.028 634.787 229.357 634.641 229.648C634.495 229.94 634.268 230.181 633.987 230.34C633.707 230.5 633.387 230.571 633.067 230.544C632.639 230.509 632.242 230.303 631.964 229.97C631.685 229.638 631.547 229.206 631.58 228.77Z" fill="#1F1F1F" fill-opacity="0.9"/>
</g>
<g style="mix-blend-mode:screen">
<path d="M694.493 339.957C694.518 339.631 694.638 339.32 694.837 339.064C695.035 338.807 695.304 338.617 695.609 338.516C695.914 338.415 696.241 338.409 696.55 338.497C696.859 338.586 697.134 338.766 697.343 339.014C697.551 339.263 697.682 339.569 697.72 339.893C697.758 340.218 697.701 340.546 697.555 340.838C697.41 341.129 697.183 341.37 696.904 341.53C696.624 341.69 696.305 341.762 695.985 341.737C695.772 341.72 695.565 341.661 695.375 341.562C695.184 341.464 695.015 341.328 694.877 341.163C694.738 340.997 694.633 340.806 694.567 340.599C694.501 340.392 694.476 340.174 694.493 339.957Z" fill="#1F1F1F" fill-opacity="0.9"/>
</g>
<g style="mix-blend-mode:screen">
<path d="M102.763 358.97C102.789 358.644 102.908 358.333 103.107 358.077C103.306 357.82 103.576 357.63 103.881 357.529C104.186 357.429 104.514 357.422 104.822 357.512C105.131 357.601 105.407 357.782 105.615 358.031C105.823 358.28 105.953 358.586 105.991 358.911C106.028 359.235 105.97 359.564 105.824 359.855C105.677 360.146 105.45 360.387 105.17 360.546C104.89 360.705 104.569 360.777 104.25 360.75C103.821 360.715 103.424 360.508 103.145 360.174C102.866 359.84 102.729 359.407 102.763 358.97Z" fill="#1F1F1F" fill-opacity="0.9"/>
</g>
<g style="mix-blend-mode:screen">
<path d="M194.818 25.232C194.572 24.354 195.071 23.439 195.932 23.1882C196.793 22.9374 197.691 23.4459 197.937 24.3239C198.183 25.2019 197.684 26.117 196.823 26.3678C195.961 26.6185 195.064 26.11 194.818 25.232Z" fill="#1F1F1F" fill-opacity="0.9"/>
</g>
<g style="mix-blend-mode:screen">
<path d="M150.906 339.957C150.931 339.631 151.051 339.32 151.25 339.064C151.448 338.807 151.717 338.617 152.022 338.516C152.327 338.415 152.655 338.409 152.963 338.497C153.272 338.586 153.547 338.766 153.756 339.014C153.964 339.263 154.095 339.569 154.133 339.893C154.171 340.218 154.114 340.546 153.968 340.838C153.823 341.129 153.596 341.37 153.317 341.53C153.037 341.69 152.718 341.762 152.398 341.737C152.185 341.72 151.978 341.661 151.788 341.562C151.597 341.464 151.428 341.328 151.29 341.163C151.151 340.997 151.046 340.806 150.98 340.599C150.914 340.392 150.889 340.174 150.906 339.957Z" fill="#1F1F1F" fill-opacity="0.9"/>
</g>
<g style="mix-blend-mode:screen">
<path d="M231.303 356.259C231.32 356.042 231.399 355.834 231.532 355.663C231.664 355.492 231.843 355.364 232.046 355.297C232.25 355.229 232.468 355.225 232.674 355.284C232.88 355.343 233.064 355.462 233.203 355.628C233.342 355.794 233.429 355.998 233.455 356.214C233.48 356.43 233.442 356.65 233.345 356.844C233.248 357.038 233.097 357.199 232.911 357.306C232.724 357.412 232.511 357.46 232.298 357.444C232.156 357.432 232.018 357.393 231.891 357.327C231.765 357.262 231.652 357.171 231.56 357.061C231.467 356.951 231.397 356.824 231.353 356.686C231.309 356.548 231.292 356.403 231.303 356.259Z" fill="#1F1F1F" fill-opacity="0.9"/>
</g>
<g style="mix-blend-mode:screen">
<path d="M593.59 112.402C593.607 112.185 593.688 111.979 593.821 111.808C593.953 111.638 594.133 111.511 594.336 111.444C594.539 111.378 594.758 111.374 594.963 111.433C595.168 111.493 595.352 111.613 595.49 111.779C595.629 111.945 595.716 112.148 595.741 112.365C595.766 112.581 595.728 112.8 595.631 112.994C595.534 113.188 595.383 113.348 595.197 113.455C595.01 113.561 594.797 113.609 594.585 113.593C594.442 113.582 594.304 113.542 594.177 113.476C594.05 113.41 593.937 113.319 593.844 113.208C593.752 113.098 593.682 112.97 593.638 112.831C593.594 112.693 593.578 112.547 593.59 112.402Z" fill="#1F1F1F" fill-opacity="0.9"/>
</g>
<g style="mix-blend-mode:screen">
<path d="M74.3096 338.855C74.3262 338.637 74.4057 338.43 74.538 338.259C74.6702 338.087 74.8493 337.96 75.0526 337.893C75.2559 337.825 75.4742 337.82 75.6801 337.879C75.8859 337.938 76.07 338.058 76.209 338.224C76.348 338.389 76.4357 338.593 76.4611 338.81C76.4865 339.026 76.4484 339.245 76.3516 339.44C76.2547 339.634 76.1035 339.795 75.9171 339.902C75.7307 340.008 75.5175 340.056 75.3043 340.04C75.1626 340.028 75.0245 339.989 74.8978 339.923C74.7712 339.858 74.6584 339.767 74.566 339.657C74.4736 339.547 74.4035 339.42 74.3595 339.282C74.3154 339.144 74.2985 338.999 74.3096 338.855Z" fill="#1F1F1F" fill-opacity="0.9"/>
</g>
<g style="mix-blend-mode:screen">
<path d="M18.749 456.324C18.7603 456.18 18.7996 456.039 18.8644 455.909C18.9292 455.78 19.0184 455.665 19.1269 455.571C19.2353 455.477 19.3609 455.405 19.4964 455.36C19.6319 455.316 19.7748 455.299 19.9168 455.31C20.0588 455.322 20.1972 455.362 20.324 455.428C20.4509 455.494 20.5637 455.585 20.656 455.695C20.7484 455.806 20.8185 455.934 20.8624 456.072C20.9062 456.21 20.9229 456.356 20.9116 456.501C20.9007 456.646 20.8618 456.787 20.7971 456.916C20.7324 457.046 20.6432 457.161 20.5347 457.255C20.4261 457.35 20.3004 457.421 20.1646 457.466C20.0289 457.51 19.8858 457.527 19.7438 457.515C19.6016 457.504 19.463 457.464 19.336 457.398C19.2089 457.332 19.0958 457.241 19.0034 457.13C18.9109 457.02 18.8409 456.892 18.7972 456.753C18.7535 456.615 18.7371 456.469 18.749 456.324Z" fill="#1F1F1F" fill-opacity="0.9"/>
</g>
<g style="mix-blend-mode:screen">
<path d="M105.753 90.6388C105.77 90.4215 105.849 90.2141 105.981 90.0429C106.114 89.8716 106.293 89.7442 106.496 89.6767C106.699 89.6092 106.918 89.6046 107.123 89.6636C107.329 89.7226 107.513 89.8425 107.652 90.008C107.791 90.1736 107.879 90.3775 107.904 90.5939C107.93 90.8103 107.892 91.0296 107.795 91.2239C107.698 91.4182 107.547 91.5789 107.36 91.6857C107.174 91.7924 106.961 91.8404 106.748 91.8237C106.606 91.8125 106.468 91.773 106.341 91.7074C106.215 91.6418 106.102 91.5514 106.009 91.4414C105.917 91.3313 105.847 91.2038 105.803 91.0661C105.759 90.9284 105.742 90.7832 105.753 90.6388Z" fill="#1F1F1F" fill-opacity="0.9"/>
</g>
<g style="mix-blend-mode:screen">
<path d="M436.445 345.468C436.461 345.251 436.541 345.043 436.673 344.872C436.805 344.701 436.984 344.573 437.188 344.506C437.391 344.438 437.609 344.434 437.815 344.493C438.021 344.552 438.205 344.672 438.344 344.837C438.483 345.003 438.571 345.207 438.596 345.423C438.622 345.64 438.584 345.859 438.487 346.053C438.39 346.247 438.239 346.408 438.052 346.515C437.866 346.622 437.653 346.67 437.44 346.653C437.298 346.642 437.16 346.602 437.033 346.537C436.906 346.471 436.794 346.381 436.701 346.271C436.609 346.161 436.539 346.033 436.495 345.895C436.451 345.758 436.434 345.612 436.445 345.468Z" fill="#1F1F1F" fill-opacity="0.9"/>
</g>
<g style="mix-blend-mode:screen">
<path d="M148.214 228.814C148.23 228.597 148.31 228.389 148.442 228.218C148.574 228.047 148.753 227.919 148.957 227.852C149.16 227.784 149.378 227.78 149.584 227.839C149.79 227.898 149.974 228.018 150.113 228.183C150.252 228.349 150.34 228.553 150.365 228.769C150.391 228.985 150.353 229.205 150.256 229.399C150.159 229.593 150.008 229.754 149.821 229.861C149.635 229.967 149.422 230.016 149.208 229.999C149.067 229.988 148.929 229.948 148.802 229.882C148.675 229.817 148.562 229.727 148.47 229.616C148.378 229.506 148.307 229.379 148.263 229.241C148.219 229.103 148.202 228.958 148.214 228.814Z" fill="#1F1F1F" fill-opacity="0.9"/>
</g>
<g style="mix-blend-mode:screen">
<path d="M424.07 287.855C424.086 287.637 424.166 287.43 424.298 287.259C424.43 287.087 424.61 286.96 424.813 286.893C425.016 286.825 425.235 286.82 425.44 286.879C425.646 286.938 425.83 287.058 425.969 287.224C426.108 287.389 426.196 287.593 426.221 287.81C426.247 288.026 426.209 288.245 426.112 288.44C426.015 288.634 425.864 288.795 425.677 288.901C425.491 289.008 425.278 289.056 425.065 289.039C424.923 289.028 424.785 288.989 424.658 288.923C424.531 288.858 424.419 288.767 424.326 288.657C424.234 288.547 424.164 288.42 424.12 288.282C424.076 288.144 424.059 287.999 424.07 287.855Z" fill="#1F1F1F" fill-opacity="0.9"/>
</g>
<g style="mix-blend-mode:screen">
<path d="M763.023 261.021C763.04 260.804 763.119 260.596 763.251 260.425C763.384 260.254 763.563 260.126 763.766 260.059C763.969 259.991 764.188 259.987 764.393 260.046C764.599 260.105 764.783 260.225 764.922 260.39C765.061 260.556 765.149 260.76 765.174 260.976C765.2 261.192 765.162 261.412 765.065 261.606C764.968 261.8 764.817 261.961 764.63 262.068C764.444 262.175 764.231 262.223 764.018 262.206C763.876 262.195 763.738 262.155 763.611 262.09C763.485 262.024 763.372 261.934 763.279 261.823C763.187 261.713 763.117 261.586 763.073 261.448C763.029 261.31 763.012 261.165 763.023 261.021Z" fill="#1F1F1F" fill-opacity="0.9"/>
</g>
<g style="mix-blend-mode:screen">
<path d="M742.273 332.577C742.29 332.36 742.37 332.153 742.502 331.982C742.634 331.81 742.813 331.683 743.016 331.615C743.22 331.548 743.438 331.543 743.644 331.602C743.85 331.661 744.034 331.781 744.173 331.947C744.312 332.112 744.4 332.316 744.425 332.533C744.45 332.749 744.412 332.968 744.315 333.163C744.219 333.357 744.067 333.518 743.881 333.624C743.695 333.731 743.481 333.779 743.268 333.762C743.126 333.751 742.988 333.712 742.862 333.646C742.735 333.58 742.622 333.49 742.53 333.38C742.437 333.27 742.367 333.142 742.323 333.005C742.279 332.867 742.262 332.722 742.273 332.577Z" fill="#1F1F1F" fill-opacity="0.9"/>
</g>
<g style="mix-blend-mode:screen">
<path d="M751.243 315.157C751.259 314.939 751.339 314.732 751.471 314.561C751.603 314.39 751.782 314.262 751.986 314.195C752.189 314.127 752.407 314.123 752.613 314.182C752.819 314.241 753.003 314.36 753.142 314.526C753.281 314.692 753.369 314.895 753.394 315.112C753.42 315.328 753.381 315.548 753.285 315.742C753.188 315.936 753.037 316.097 752.85 316.204C752.664 316.31 752.451 316.358 752.237 316.342C752.096 316.33 751.958 316.291 751.831 316.225C751.704 316.16 751.591 316.069 751.499 315.959C751.407 315.849 751.336 315.722 751.292 315.584C751.248 315.446 751.232 315.301 751.243 315.157Z" fill="#1F1F1F" fill-opacity="0.9"/>
</g>
<g style="mix-blend-mode:screen">
<path d="M602.261 284.979C601.191 284.418 600.77 283.079 601.32 281.989C601.87 280.898 603.184 280.468 604.254 281.029C605.324 281.59 605.745 282.929 605.195 284.02C604.645 285.111 603.331 285.54 602.261 284.979Z" fill="#1F1F1F" fill-opacity="0.9"/>
</g>
<g style="mix-blend-mode:screen">
<path d="M652.826 273.382C652.843 273.165 652.923 272.957 653.055 272.786C653.188 272.615 653.367 272.487 653.571 272.42C653.774 272.353 653.993 272.349 654.199 272.408C654.405 272.468 654.589 272.588 654.727 272.754C654.866 272.92 654.953 273.125 654.978 273.342C655.003 273.558 654.964 273.778 654.866 273.972C654.769 274.166 654.617 274.326 654.43 274.432C654.243 274.538 654.029 274.585 653.815 274.567C653.53 274.543 653.266 274.405 653.081 274.183C652.895 273.961 652.804 273.673 652.826 273.382Z" fill="#1F1F1F" fill-opacity="0.9"/>
</g>
<g style="mix-blend-mode:screen">
<path d="M721.427 280.2C721.453 279.88 721.571 279.576 721.766 279.325C721.961 279.074 722.225 278.887 722.525 278.789C722.824 278.691 723.145 278.686 723.447 278.774C723.75 278.862 724.02 279.039 724.223 279.283C724.426 279.528 724.554 279.828 724.59 280.147C724.626 280.465 724.569 280.787 724.425 281.072C724.281 281.357 724.058 281.592 723.783 281.748C723.508 281.904 723.195 281.973 722.881 281.947C722.461 281.912 722.072 281.708 721.799 281.38C721.526 281.053 721.393 280.628 721.427 280.2Z" fill="#1F1F1F" fill-opacity="0.9"/>
</g>
<g style="mix-blend-mode:screen">
<path d="M517.21 252.39C517.227 252.173 517.306 251.966 517.438 251.795C517.571 251.623 517.75 251.496 517.953 251.428C518.156 251.361 518.375 251.356 518.58 251.415C518.786 251.474 518.97 251.594 519.109 251.76C519.248 251.925 519.336 252.129 519.362 252.346C519.387 252.562 519.349 252.781 519.252 252.976C519.155 253.17 519.004 253.331 518.818 253.437C518.631 253.544 518.418 253.592 518.205 253.575C518.063 253.564 517.925 253.525 517.798 253.459C517.672 253.393 517.559 253.303 517.466 253.193C517.374 253.083 517.304 252.955 517.26 252.818C517.216 252.68 517.199 252.535 517.21 252.39Z" fill="#1F1F1F" fill-opacity="0.9"/>
</g>
<g style="mix-blend-mode:screen">
<path d="M165.119 334.269C165.131 334.123 165.199 333.988 165.308 333.893C165.418 333.798 165.56 333.751 165.703 333.762C165.846 333.774 165.979 333.843 166.073 333.955C166.166 334.067 166.212 334.211 166.2 334.358C166.195 334.43 166.175 334.501 166.143 334.565C166.111 334.63 166.066 334.688 166.012 334.735C165.958 334.782 165.895 334.818 165.827 334.84C165.759 334.862 165.688 334.871 165.617 334.865C165.546 334.859 165.476 334.839 165.413 334.806C165.349 334.773 165.293 334.728 165.246 334.672C165.2 334.617 165.165 334.553 165.143 334.484C165.122 334.415 165.113 334.342 165.119 334.269Z" fill="#1F1F1F" fill-opacity="0.9"/>
</g>
<g style="mix-blend-mode:screen">
<path d="M377.695 323.423C377.707 323.279 377.775 323.146 377.883 323.052C377.992 322.958 378.132 322.911 378.273 322.922C378.417 322.934 378.55 323.003 378.643 323.115C378.736 323.226 378.782 323.371 378.771 323.517C378.759 323.663 378.691 323.799 378.582 323.894C378.472 323.989 378.33 324.036 378.187 324.024C378.116 324.018 378.047 323.997 377.983 323.964C377.92 323.93 377.864 323.884 377.818 323.828C377.772 323.772 377.738 323.708 377.717 323.638C377.696 323.569 377.688 323.496 377.695 323.423Z" fill="#1F1F1F" fill-opacity="0.9"/>
</g>
<g style="mix-blend-mode:screen">
<path d="M395.379 268.863C395.387 268.755 395.428 268.651 395.494 268.566C395.56 268.481 395.65 268.418 395.752 268.384C395.853 268.351 395.962 268.349 396.065 268.379C396.168 268.409 396.26 268.469 396.329 268.552C396.398 268.634 396.442 268.736 396.454 268.844C396.467 268.953 396.448 269.062 396.399 269.159C396.351 269.256 396.275 269.336 396.182 269.39C396.089 269.443 395.982 269.467 395.876 269.458C395.805 269.453 395.736 269.433 395.672 269.4C395.609 269.367 395.552 269.322 395.506 269.266C395.46 269.211 395.425 269.147 395.403 269.078C395.381 269.009 395.373 268.936 395.379 268.863Z" fill="#1F1F1F" fill-opacity="0.9"/>
</g>
<g style="mix-blend-mode:screen">
<path d="M510.311 338.37C510.32 338.261 510.36 338.158 510.427 338.073C510.493 337.987 510.583 337.924 510.684 337.891C510.786 337.857 510.895 337.855 510.998 337.885C511.101 337.915 511.192 337.975 511.262 338.058C511.331 338.141 511.374 338.243 511.387 338.351C511.399 338.459 511.38 338.568 511.332 338.665C511.283 338.762 511.208 338.843 511.115 338.896C511.022 338.949 510.915 338.973 510.809 338.965C510.738 338.959 510.668 338.939 510.605 338.906C510.541 338.874 510.485 338.828 510.438 338.773C510.392 338.717 510.357 338.653 510.335 338.584C510.314 338.515 510.305 338.442 510.311 338.37Z" fill="#1F1F1F" fill-opacity="0.9"/>
</g>
<g style="mix-blend-mode:screen">
<path d="M551.367 264.454C551.379 264.31 551.447 264.177 551.555 264.083C551.663 263.989 551.803 263.942 551.945 263.953C552.052 263.961 552.154 264.001 552.239 264.069C552.323 264.136 552.386 264.228 552.419 264.331C552.452 264.435 552.455 264.547 552.425 264.652C552.396 264.757 552.337 264.851 552.255 264.922C552.174 264.993 552.073 265.038 551.967 265.05C551.86 265.062 551.752 265.042 551.657 264.992C551.562 264.942 551.483 264.864 551.432 264.768C551.38 264.673 551.357 264.563 551.367 264.454Z" fill="#1F1F1F" fill-opacity="0.9"/>
</g>
<g style="mix-blend-mode:screen">
<path d="M554.07 307.386C554.082 307.242 554.15 307.108 554.258 307.014C554.366 306.921 554.506 306.874 554.648 306.885C554.755 306.893 554.857 306.933 554.942 307C555.026 307.068 555.089 307.159 555.122 307.263C555.156 307.367 555.158 307.479 555.129 307.584C555.099 307.689 555.04 307.783 554.959 307.854C554.877 307.925 554.776 307.969 554.67 307.982C554.563 307.994 554.455 307.974 554.36 307.924C554.265 307.874 554.186 307.796 554.135 307.7C554.083 307.604 554.06 307.495 554.07 307.386Z" fill="#1F1F1F" fill-opacity="0.9"/>
</g>
<g style="mix-blend-mode:screen">
<path d="M607.181 346.052C607.189 345.943 607.228 345.839 607.295 345.753C607.361 345.667 607.45 345.603 607.552 345.569C607.654 345.535 607.764 345.533 607.867 345.562C607.97 345.592 608.062 345.652 608.132 345.736C608.201 345.819 608.245 345.921 608.257 346.03C608.269 346.139 608.25 346.249 608.2 346.346C608.151 346.443 608.075 346.523 607.981 346.576C607.887 346.628 607.78 346.651 607.673 346.642C607.531 346.629 607.4 346.56 607.308 346.45C607.216 346.339 607.17 346.197 607.181 346.052Z" fill="#1F1F1F" fill-opacity="0.9"/>
</g>
<g style="mix-blend-mode:screen">
<path d="M732.488 380.546C732.494 380.474 732.514 380.403 732.546 380.339C732.578 380.274 732.623 380.217 732.677 380.17C732.731 380.122 732.794 380.087 732.862 380.064C732.93 380.042 733.001 380.034 733.072 380.039C733.143 380.045 733.212 380.065 733.276 380.098C733.339 380.131 733.396 380.177 733.442 380.232C733.488 380.287 733.523 380.351 733.545 380.42C733.567 380.489 733.575 380.562 733.57 380.635C733.558 380.781 733.49 380.916 733.381 381.011C733.271 381.106 733.129 381.153 732.986 381.142C732.842 381.13 732.709 381.061 732.616 380.949C732.523 380.837 732.477 380.693 732.488 380.546Z" fill="#1F1F1F" fill-opacity="0.9"/>
</g>
<g style="mix-blend-mode:screen">
<path d="M667.056 357.791C667.061 357.719 667.081 357.648 667.113 357.583C667.146 357.519 667.19 357.461 667.245 357.414C667.299 357.367 667.362 357.331 667.429 357.309C667.497 357.287 667.569 357.278 667.64 357.284C667.711 357.29 667.78 357.31 667.843 357.343C667.907 357.376 667.963 357.421 668.009 357.476C668.055 357.532 668.09 357.596 668.112 357.665C668.134 357.734 668.143 357.807 668.137 357.879C668.125 358.023 668.057 358.157 667.949 358.251C667.84 358.345 667.7 358.391 667.558 358.381C667.487 358.376 667.418 358.357 667.354 358.324C667.29 358.292 667.234 358.247 667.187 358.192C667.14 358.137 667.105 358.074 667.082 358.005C667.06 357.936 667.051 357.863 667.056 357.791Z" fill="#1F1F1F" fill-opacity="0.9"/>
</g>
<g style="mix-blend-mode:screen">
<path d="M835.84 300.222C835.846 300.149 835.866 300.079 835.898 300.014C835.93 299.949 835.975 299.892 836.029 299.845C836.083 299.798 836.146 299.762 836.214 299.74C836.282 299.717 836.353 299.709 836.424 299.715C836.495 299.72 836.564 299.74 836.628 299.773C836.691 299.806 836.748 299.852 836.794 299.907C836.887 300.019 836.933 300.164 836.922 300.31C836.91 300.456 836.842 300.591 836.733 300.687C836.623 300.782 836.481 300.828 836.338 300.817C836.194 300.805 836.061 300.736 835.968 300.624C835.875 300.513 835.829 300.368 835.84 300.222Z" fill="#1F1F1F" fill-opacity="0.9"/>
</g>
<g style="mix-blend-mode:screen">
<path d="M815.594 322.872C815.605 322.726 815.673 322.591 815.783 322.496C815.892 322.4 816.034 322.354 816.178 322.365C816.321 322.377 816.454 322.446 816.547 322.558C816.641 322.67 816.686 322.814 816.675 322.961C816.67 323.033 816.65 323.104 816.618 323.168C816.585 323.233 816.541 323.291 816.487 323.338C816.432 323.385 816.369 323.421 816.302 323.443C816.234 323.465 816.162 323.474 816.091 323.468C816.02 323.462 815.951 323.442 815.887 323.409C815.824 323.376 815.767 323.331 815.721 323.275C815.675 323.22 815.64 323.156 815.618 323.087C815.596 323.018 815.588 322.945 815.594 322.872Z" fill="#1F1F1F" fill-opacity="0.9"/>
</g>
<g style="mix-blend-mode:screen">
<path d="M805.727 345.501C805.739 345.355 805.807 345.219 805.916 345.124C806.026 345.029 806.168 344.982 806.311 344.994C806.454 345.006 806.587 345.075 806.681 345.187C806.774 345.298 806.82 345.443 806.808 345.589C806.797 345.735 806.729 345.871 806.619 345.966C806.51 346.061 806.368 346.108 806.224 346.096C806.081 346.085 805.948 346.015 805.855 345.904C805.762 345.792 805.716 345.647 805.727 345.501Z" fill="#1F1F1F" fill-opacity="0.9"/>
</g>
<g style="mix-blend-mode:screen">
<path d="M806.268 234C806.276 233.891 806.315 233.787 806.381 233.701C806.448 233.615 806.537 233.551 806.639 233.517C806.741 233.483 806.851 233.48 806.954 233.51C807.057 233.54 807.149 233.6 807.219 233.683C807.288 233.767 807.332 233.869 807.344 233.978C807.356 234.086 807.337 234.196 807.287 234.293C807.238 234.39 807.162 234.471 807.068 234.523C806.974 234.576 806.867 234.599 806.76 234.589C806.618 234.577 806.487 234.508 806.395 234.398C806.303 234.287 806.257 234.144 806.268 234Z" fill="#1F1F1F" fill-opacity="0.9"/>
</g>
<g style="mix-blend-mode:screen">
<path d="M525.205 273.978C525.214 273.869 525.254 273.766 525.321 273.681C525.387 273.595 525.477 273.532 525.578 273.499C525.68 273.465 525.789 273.463 525.892 273.493C525.995 273.523 526.086 273.583 526.156 273.666C526.225 273.749 526.268 273.851 526.281 273.959C526.293 274.067 526.274 274.176 526.226 274.273C526.177 274.37 526.102 274.451 526.009 274.504C525.916 274.557 525.809 274.581 525.703 274.573C525.632 274.567 525.562 274.547 525.499 274.514C525.435 274.481 525.379 274.436 525.332 274.381C525.286 274.325 525.251 274.261 525.229 274.192C525.208 274.123 525.199 274.05 525.205 273.978Z" fill="#1F1F1F" fill-opacity="0.9"/>
</g>
<g style="mix-blend-mode:screen">
<path d="M325.432 290.952C325.443 290.806 325.511 290.67 325.621 290.575C325.73 290.48 325.872 290.433 326.016 290.445C326.159 290.457 326.292 290.526 326.385 290.637C326.478 290.749 326.524 290.894 326.513 291.04C326.501 291.186 326.433 291.322 326.324 291.417C326.215 291.512 326.072 291.559 325.929 291.547C325.786 291.535 325.653 291.466 325.56 291.355C325.466 291.243 325.42 291.098 325.432 290.952Z" fill="#1F1F1F" fill-opacity="0.9"/>
</g>
<g style="mix-blend-mode:screen">
<path d="M223.778 317.119C223.783 317.046 223.803 316.976 223.835 316.911C223.867 316.846 223.912 316.789 223.966 316.741C224.02 316.694 224.083 316.659 224.151 316.636C224.219 316.614 224.29 316.606 224.362 316.612C224.503 316.624 224.634 316.693 224.726 316.804C224.818 316.914 224.864 317.057 224.854 317.201C224.848 317.274 224.829 317.344 224.797 317.409C224.765 317.474 224.72 317.532 224.666 317.579C224.613 317.626 224.55 317.662 224.482 317.685C224.415 317.708 224.343 317.717 224.272 317.711C224.201 317.706 224.132 317.686 224.069 317.653C224.005 317.621 223.948 317.576 223.902 317.521C223.856 317.466 223.82 317.402 223.798 317.333C223.776 317.264 223.767 317.191 223.772 317.119H223.778Z" fill="#1F1F1F" fill-opacity="0.9"/>
</g>
<g style="mix-blend-mode:screen">
<path d="M257.102 312.087C257.113 311.942 257.18 311.807 257.289 311.712C257.397 311.617 257.538 311.569 257.681 311.58C257.752 311.585 257.821 311.605 257.884 311.638C257.948 311.67 258.005 311.716 258.051 311.771C258.097 311.826 258.133 311.889 258.155 311.958C258.177 312.027 258.186 312.1 258.181 312.172C258.175 312.245 258.156 312.315 258.124 312.38C258.092 312.445 258.048 312.503 257.994 312.55C257.94 312.597 257.877 312.633 257.809 312.656C257.742 312.679 257.67 312.688 257.6 312.682C257.528 312.677 257.459 312.657 257.396 312.624C257.332 312.591 257.276 312.545 257.229 312.49C257.183 312.435 257.148 312.371 257.126 312.302C257.104 312.232 257.096 312.159 257.102 312.087Z" fill="#1F1F1F" fill-opacity="0.9"/>
</g>
<g style="mix-blend-mode:screen">
<path d="M294.335 355.201C294.341 355.128 294.36 355.058 294.393 354.993C294.425 354.928 294.47 354.871 294.524 354.824C294.578 354.777 294.641 354.741 294.709 354.719C294.776 354.696 294.848 354.688 294.919 354.694C294.99 354.699 295.059 354.719 295.122 354.752C295.186 354.786 295.242 354.831 295.288 354.886C295.335 354.942 295.37 355.005 295.392 355.075C295.414 355.144 295.422 355.216 295.416 355.289C295.405 355.435 295.337 355.57 295.227 355.666C295.118 355.761 294.976 355.808 294.832 355.796C294.689 355.784 294.556 355.715 294.463 355.603C294.369 355.492 294.323 355.347 294.335 355.201Z" fill="#1F1F1F" fill-opacity="0.9"/>
</g>
<g style="mix-blend-mode:screen">
<path d="M112.457 374.319C112.468 374.173 112.536 374.037 112.646 373.942C112.755 373.847 112.897 373.8 113.04 373.812C113.184 373.823 113.317 373.893 113.41 374.004C113.503 374.116 113.549 374.261 113.538 374.407C113.526 374.553 113.458 374.689 113.349 374.784C113.239 374.879 113.097 374.926 112.954 374.914C112.811 374.902 112.678 374.833 112.584 374.721C112.491 374.61 112.445 374.465 112.457 374.319Z" fill="#1F1F1F" fill-opacity="0.9"/>
</g>
<g style="mix-blend-mode:screen">
<path d="M251.29 182.339C251.291 182.227 251.325 182.118 251.389 182.026C251.452 181.935 251.541 181.865 251.644 181.826C251.747 181.787 251.859 181.782 251.965 181.809C252.071 181.837 252.167 181.897 252.239 181.981C252.311 182.066 252.356 182.171 252.368 182.282C252.38 182.393 252.359 182.505 252.307 182.604C252.255 182.702 252.175 182.782 252.078 182.834C251.98 182.885 251.869 182.904 251.761 182.89C251.63 182.872 251.51 182.806 251.423 182.705C251.336 182.603 251.289 182.473 251.29 182.339Z" fill="#1F1F1F" fill-opacity="0.9"/>
</g>
<g style="mix-blend-mode:screen">
<path d="M125.253 348.119C125.264 347.973 125.332 347.837 125.442 347.742C125.551 347.647 125.693 347.6 125.837 347.612C125.98 347.624 126.113 347.693 126.206 347.804C126.3 347.916 126.346 348.061 126.334 348.207C126.329 348.279 126.309 348.35 126.277 348.415C126.244 348.479 126.199 348.537 126.145 348.584C126.091 348.631 126.028 348.667 125.96 348.689C125.893 348.711 125.821 348.72 125.75 348.714C125.679 348.708 125.61 348.688 125.547 348.655C125.483 348.622 125.427 348.577 125.381 348.521C125.335 348.466 125.299 348.402 125.278 348.333C125.256 348.264 125.247 348.191 125.253 348.119Z" fill="#1F1F1F" fill-opacity="0.9"/>
</g>
<g style="mix-blend-mode:screen">
<path d="M174.245 386.719C174.254 386.61 174.294 386.507 174.361 386.422C174.427 386.336 174.517 386.273 174.618 386.24C174.72 386.207 174.829 386.205 174.932 386.234C175.035 386.264 175.126 386.324 175.196 386.407C175.265 386.49 175.308 386.592 175.321 386.7C175.333 386.808 175.314 386.918 175.266 387.015C175.217 387.112 175.142 387.192 175.049 387.245C174.956 387.298 174.849 387.322 174.743 387.314C174.672 387.308 174.602 387.289 174.539 387.256C174.475 387.223 174.419 387.177 174.373 387.122C174.326 387.067 174.291 387.002 174.269 386.933C174.248 386.864 174.239 386.791 174.245 386.719Z" fill="#1F1F1F" fill-opacity="0.9"/>
</g>
<g style="mix-blend-mode:screen">
<path d="M282.084 48.4841C282.09 48.4117 282.109 48.3411 282.142 48.2763C282.174 48.2115 282.219 48.1539 282.273 48.1068C282.327 48.0597 282.39 48.024 282.458 48.0017C282.526 47.9794 282.597 47.9711 282.668 47.9771C282.812 47.9888 282.945 48.0581 283.038 48.1697C283.131 48.2813 283.177 48.4262 283.166 48.5723C283.154 48.7185 283.086 48.854 282.977 48.9491C282.867 49.0442 282.725 49.091 282.582 49.0794C282.511 49.0738 282.442 49.054 282.378 49.021C282.314 48.988 282.258 48.9426 282.212 48.8872C282.166 48.8319 282.13 48.7678 282.109 48.6986C282.087 48.6295 282.079 48.5566 282.084 48.4841Z" fill="#1F1F1F" fill-opacity="0.9"/>
</g>
<g style="mix-blend-mode:screen">
<path d="M239.326 7.66871C239.337 7.52255 239.404 7.38672 239.513 7.29112C239.622 7.19552 239.764 7.14797 239.907 7.15893C240.05 7.16989 240.184 7.23847 240.277 7.34957C240.371 7.46068 240.418 7.60521 240.407 7.75138C240.402 7.82383 240.382 7.89447 240.35 7.95923C240.318 8.02399 240.273 8.08159 240.219 8.12872C240.164 8.17584 240.102 8.21156 240.034 8.23382C239.966 8.25607 239.894 8.26443 239.823 8.2584C239.681 8.24713 239.548 8.17876 239.455 8.06824C239.362 7.95773 239.315 7.81407 239.326 7.66871Z" fill="#1F1F1F" fill-opacity="0.9"/>
</g>
<g style="mix-blend-mode:screen">
<path d="M472.008 265.336C472.016 265.228 472.057 265.124 472.123 265.039C472.189 264.954 472.279 264.891 472.381 264.857C472.482 264.824 472.591 264.822 472.694 264.852C472.797 264.881 472.889 264.942 472.958 265.024C473.027 265.107 473.071 265.209 473.083 265.317C473.096 265.425 473.077 265.535 473.028 265.632C472.98 265.729 472.904 265.809 472.811 265.862C472.718 265.916 472.611 265.94 472.505 265.931C472.434 265.926 472.365 265.906 472.301 265.873C472.237 265.84 472.181 265.794 472.135 265.739C472.089 265.684 472.053 265.62 472.032 265.551C472.01 265.481 472.002 265.409 472.008 265.336Z" fill="#1F1F1F" fill-opacity="0.9"/>
</g>
<g style="mix-blend-mode:screen">
<path d="M666.564 256.414C666.575 256.268 666.642 256.133 666.75 256.038C666.859 255.943 667 255.896 667.142 255.907C667.213 255.912 667.283 255.932 667.346 255.965C667.41 255.998 667.466 256.043 667.513 256.099C667.559 256.154 667.594 256.218 667.616 256.287C667.637 256.356 667.646 256.429 667.64 256.502C667.628 256.648 667.56 256.783 667.451 256.879C667.341 256.974 667.199 257.02 667.056 257.009C666.912 256.997 666.78 256.928 666.686 256.816C666.593 256.705 666.547 256.56 666.558 256.414H666.564Z" fill="#1F1F1F" fill-opacity="0.9"/>
</g>
<g style="mix-blend-mode:screen">
<path d="M799.364 286.797C799.37 286.724 799.389 286.653 799.421 286.589C799.454 286.524 799.498 286.466 799.553 286.419C799.607 286.372 799.67 286.336 799.738 286.314C799.805 286.292 799.877 286.283 799.948 286.289C800.054 286.299 800.156 286.339 800.239 286.407C800.323 286.475 800.385 286.566 800.418 286.67C800.451 286.774 800.452 286.885 800.423 286.989C800.394 287.094 800.335 287.188 800.254 287.258C800.173 287.329 800.073 287.373 799.966 287.386C799.86 287.399 799.753 287.379 799.658 287.33C799.563 287.28 799.484 287.203 799.432 287.109C799.38 287.014 799.356 286.905 799.364 286.797Z" fill="#1F1F1F" fill-opacity="0.9"/>
</g>
<g style="mix-blend-mode:screen">
<path d="M760.466 357.791C760.477 357.645 760.545 357.509 760.655 357.414C760.764 357.319 760.906 357.272 761.05 357.284C761.193 357.296 761.326 357.365 761.419 357.476C761.513 357.588 761.559 357.733 761.547 357.879C761.536 358.025 761.468 358.161 761.358 358.256C761.249 358.351 761.107 358.398 760.963 358.386C760.82 358.374 760.687 358.305 760.594 358.193C760.5 358.082 760.454 357.937 760.466 357.791Z" fill="#1F1F1F" fill-opacity="0.9"/>
</g>
<g style="mix-blend-mode:screen">
<path d="M348.847 72.3363C348.858 72.1901 348.926 72.0546 349.036 71.9595C349.145 71.8644 349.287 71.8176 349.431 71.8293C349.574 71.841 349.707 71.9103 349.8 72.0219C349.893 72.1335 349.939 72.2783 349.928 72.4245C349.916 72.5706 349.849 72.7062 349.739 72.8013C349.63 72.8964 349.487 72.9432 349.344 72.9315C349.201 72.9198 349.068 72.8505 348.974 72.7389C348.881 72.6273 348.835 72.4825 348.847 72.3363Z" fill="#1F1F1F" fill-opacity="0.9"/>
</g>
<g style="mix-blend-mode:screen">
<path d="M413.728 53.2513C413.737 53.1428 413.777 53.0394 413.843 52.9542C413.91 52.8689 413.999 52.8057 414.101 52.7723C414.203 52.739 414.312 52.7371 414.414 52.7669C414.517 52.7966 414.609 52.8567 414.678 52.9396C414.747 53.0224 414.791 53.1244 414.803 53.2325C414.816 53.3406 414.797 53.45 414.748 53.547C414.7 53.644 414.624 53.7242 414.531 53.7775C414.438 53.8308 414.332 53.8548 414.225 53.8465C414.154 53.8409 414.085 53.8211 414.021 53.7881C413.958 53.7551 413.901 53.7097 413.855 53.6543C413.809 53.599 413.774 53.5349 413.752 53.4657C413.73 53.3966 413.722 53.3237 413.728 53.2513Z" fill="#1F1F1F" fill-opacity="0.9"/>
</g>
<g style="mix-blend-mode:screen">
<path d="M400.137 105.59C400.144 105.482 400.184 105.378 400.249 105.292C400.315 105.206 400.405 105.141 400.506 105.107C400.608 105.073 400.717 105.07 400.82 105.1C400.924 105.129 401.016 105.189 401.086 105.271C401.155 105.354 401.2 105.456 401.212 105.564C401.225 105.673 401.206 105.782 401.158 105.88C401.11 105.977 401.034 106.058 400.941 106.111C400.847 106.165 400.741 106.189 400.634 106.18C400.491 106.169 400.359 106.101 400.266 105.99C400.173 105.879 400.126 105.736 400.137 105.59Z" fill="#1F1F1F" fill-opacity="0.9"/>
</g>
<g style="mix-blend-mode:screen">
<path d="M458.092 93.9565C458.099 93.8477 458.139 93.7437 458.205 93.6577C458.27 93.5717 458.36 93.5075 458.461 93.4733C458.563 93.4392 458.672 93.4365 458.775 93.4657C458.879 93.4949 458.971 93.5547 459.041 93.6374C459.11 93.7202 459.155 93.8221 459.167 93.9304C459.18 94.0388 459.161 94.1485 459.113 94.2458C459.065 94.3432 458.989 94.4237 458.896 94.4771C458.802 94.5306 458.696 94.5546 458.589 94.5462C458.446 94.5349 458.314 94.4665 458.221 94.356C458.128 94.2455 458.081 94.1019 458.092 93.9565Z" fill="#1F1F1F" fill-opacity="0.9"/>
</g>
<g style="mix-blend-mode:screen">
<path d="M525.746 84.6647C525.754 84.5559 525.793 84.4519 525.859 84.3659C525.925 84.2799 526.014 84.2157 526.116 84.1816C526.217 84.1474 526.327 84.1447 526.43 84.174C526.533 84.2032 526.625 84.2629 526.695 84.3457C526.765 84.4284 526.809 84.5304 526.822 84.6387C526.835 84.747 526.816 84.8568 526.767 84.9541C526.719 85.0514 526.643 85.1319 526.55 85.1854C526.457 85.2388 526.35 85.2629 526.243 85.2544C526.101 85.2432 525.968 85.1748 525.875 85.0643C525.782 84.9537 525.735 84.8101 525.746 84.6647Z" fill="#1F1F1F" fill-opacity="0.9"/>
</g>
<g style="mix-blend-mode:screen">
<path d="M565.326 153.477C565.26 153.448 565.201 153.406 565.151 153.354C565.102 153.302 565.063 153.24 565.037 153.173C565.01 153.105 564.998 153.033 564.999 152.96C565 152.887 565.016 152.816 565.044 152.749C565.087 152.65 565.158 152.565 565.248 152.506C565.338 152.448 565.443 152.418 565.55 152.42C565.657 152.422 565.76 152.456 565.848 152.518C565.936 152.58 566.003 152.667 566.042 152.769C566.082 152.87 566.09 152.981 566.068 153.087C566.045 153.193 565.992 153.291 565.916 153.366C565.839 153.442 565.742 153.493 565.637 153.513C565.532 153.532 565.424 153.52 565.326 153.477Z" fill="#1F1F1F" fill-opacity="0.9"/>
</g>
<g style="mix-blend-mode:screen">
<path d="M580.766 220.453C580.7 220.425 580.641 220.383 580.592 220.331C580.542 220.279 580.503 220.217 580.477 220.149C580.451 220.082 580.438 220.01 580.439 219.937C580.441 219.864 580.456 219.793 580.485 219.726C580.541 219.592 580.648 219.486 580.781 219.431C580.915 219.377 581.064 219.379 581.196 219.437C581.328 219.494 581.432 219.603 581.485 219.739C581.538 219.875 581.536 220.027 581.48 220.161C581.452 220.229 581.411 220.29 581.36 220.341C581.309 220.392 581.249 220.432 581.183 220.459C581.116 220.486 581.045 220.5 580.974 220.499C580.902 220.498 580.832 220.483 580.766 220.453Z" fill="#1F1F1F" fill-opacity="0.9"/>
</g>
<g style="mix-blend-mode:screen">
<path d="M632.628 172.595C632.531 172.552 632.447 172.48 632.39 172.388C632.332 172.297 632.302 172.19 632.303 172.082C632.305 171.973 632.338 171.867 632.398 171.777C632.458 171.688 632.543 171.618 632.642 171.578C632.741 171.537 632.85 171.528 632.954 171.55C633.059 171.572 633.154 171.625 633.229 171.703C633.304 171.78 633.354 171.878 633.375 171.985C633.395 172.092 633.383 172.202 633.342 172.303C633.314 172.37 633.274 172.431 633.223 172.482C633.172 172.533 633.111 172.574 633.045 172.601C632.979 172.628 632.908 172.641 632.836 172.64C632.765 172.639 632.694 172.624 632.628 172.595Z" fill="#1F1F1F" fill-opacity="0.9"/>
</g>
<g style="mix-blend-mode:screen">
<path d="M687.07 220.454C686.938 220.396 686.834 220.287 686.781 220.151C686.728 220.015 686.729 219.863 686.786 219.729C686.843 219.594 686.949 219.488 687.083 219.434C687.216 219.38 687.365 219.382 687.497 219.439C687.629 219.497 687.733 219.606 687.786 219.742C687.839 219.878 687.837 220.03 687.781 220.164C687.724 220.299 687.617 220.405 687.484 220.459C687.351 220.513 687.202 220.511 687.07 220.454Z" fill="#1F1F1F" fill-opacity="0.9"/>
</g>
<g style="mix-blend-mode:screen">
<path d="M120.204 56.6351C120.105 56.5926 120.021 56.5213 119.963 56.4302C119.904 56.3391 119.873 56.2322 119.874 56.1232C119.875 56.0142 119.907 55.9078 119.967 55.8177C120.028 55.7275 120.113 55.6575 120.212 55.6166C120.311 55.5758 120.42 55.5658 120.524 55.5879C120.629 55.6101 120.725 55.6634 120.8 55.7412C120.875 55.819 120.926 55.9177 120.946 56.0248C120.966 56.1319 120.954 56.2427 120.912 56.343C120.856 56.4774 120.75 56.5837 120.617 56.6384C120.484 56.6932 120.336 56.692 120.204 56.6351Z" fill="#1F1F1F" fill-opacity="0.9"/>
</g>
<g style="mix-blend-mode:screen">
<path d="M371.239 266.78C371.256 266.563 371.336 266.355 371.468 266.184C371.601 266.012 371.78 265.885 371.984 265.818C372.188 265.751 372.406 265.746 372.612 265.806C372.818 265.865 373.002 265.986 373.141 266.152C373.279 266.318 373.367 266.522 373.391 266.739C373.416 266.956 373.377 267.175 373.279 267.369C373.182 267.563 373.03 267.724 372.843 267.83C372.656 267.936 372.442 267.983 372.229 267.965C371.944 267.941 371.679 267.803 371.494 267.581C371.308 267.359 371.217 267.071 371.239 266.78Z" fill="#1F1F1F" fill-opacity="0.9"/>
</g>
<g style="mix-blend-mode:screen">
<path d="M212.922 269.723C212.947 269.397 213.067 269.086 213.266 268.83C213.465 268.573 213.734 268.382 214.039 268.282C214.345 268.181 214.672 268.175 214.981 268.264C215.29 268.354 215.565 268.534 215.773 268.783C215.981 269.032 216.112 269.339 216.149 269.663C216.186 269.988 216.128 270.317 215.982 270.608C215.836 270.899 215.609 271.14 215.328 271.299C215.048 271.458 214.728 271.529 214.408 271.503C213.98 271.468 213.582 271.261 213.303 270.927C213.025 270.593 212.887 270.16 212.922 269.723Z" fill="#1F1F1F" fill-opacity="0.9"/>
</g>
<g style="mix-blend-mode:screen">
<path d="M281.008 297.731C281.034 297.405 281.154 297.094 281.353 296.837C281.552 296.581 281.821 296.39 282.126 296.289C282.431 296.189 282.759 296.183 283.068 296.272C283.376 296.361 283.652 296.542 283.86 296.791C284.068 297.04 284.199 297.346 284.236 297.671C284.273 297.996 284.215 298.324 284.069 298.616C283.923 298.907 283.695 299.147 283.415 299.306C283.135 299.466 282.815 299.537 282.495 299.511C282.066 299.475 281.669 299.268 281.39 298.934C281.111 298.601 280.974 298.168 281.008 297.731Z" fill="#1F1F1F" fill-opacity="0.9"/>
</g>
<g style="mix-blend-mode:screen">
<path d="M727.384 254.352C727.41 254.026 727.53 253.716 727.729 253.459C727.928 253.203 728.197 253.012 728.502 252.911C728.807 252.811 729.135 252.805 729.444 252.894C729.752 252.983 730.028 253.164 730.236 253.413C730.444 253.662 730.575 253.968 730.612 254.293C730.649 254.618 730.591 254.946 730.445 255.238C730.299 255.529 730.071 255.769 729.791 255.928C729.511 256.088 729.191 256.159 728.871 256.133C728.442 256.097 728.045 255.89 727.766 255.556C727.487 255.223 727.35 254.789 727.384 254.352Z" fill="#1F1F1F" fill-opacity="0.9"/>
</g>
<g style="mix-blend-mode:screen">
<path d="M623.146 319.692C623.171 319.366 623.291 319.056 623.49 318.799C623.689 318.543 623.958 318.352 624.263 318.251C624.569 318.151 624.896 318.145 625.205 318.234C625.514 318.323 625.789 318.504 625.997 318.753C626.205 319.002 626.336 319.308 626.373 319.633C626.411 319.958 626.352 320.286 626.206 320.578C626.06 320.869 625.833 321.109 625.553 321.268C625.272 321.428 624.952 321.499 624.632 321.473C624.204 321.437 623.806 321.23 623.527 320.896C623.249 320.563 623.111 320.129 623.146 319.692Z" fill="#1F1F1F" fill-opacity="0.9"/>
</g>
<g style="mix-blend-mode:screen">
<path d="M773.295 291.834C773.321 291.508 773.441 291.197 773.64 290.94C773.839 290.684 774.108 290.493 774.413 290.393C774.718 290.292 775.046 290.286 775.354 290.375C775.663 290.464 775.939 290.645 776.147 290.894C776.355 291.143 776.486 291.449 776.523 291.774C776.56 292.099 776.502 292.428 776.356 292.719C776.21 293.01 775.982 293.25 775.702 293.41C775.422 293.569 775.102 293.64 774.782 293.614C774.353 293.579 773.956 293.371 773.677 293.038C773.398 292.704 773.261 292.271 773.295 291.834Z" fill="#1F1F1F" fill-opacity="0.9"/>
</g>
<g style="mix-blend-mode:screen">
<path d="M770.17 322.812C770.195 322.485 770.314 322.174 770.512 321.917C770.711 321.659 770.979 321.468 771.285 321.366C771.59 321.265 771.918 321.258 772.227 321.347C772.536 321.435 772.812 321.616 773.021 321.865C773.229 322.113 773.36 322.42 773.398 322.745C773.436 323.07 773.378 323.399 773.232 323.69C773.086 323.982 772.858 324.222 772.578 324.382C772.297 324.541 771.977 324.613 771.657 324.586C771.229 324.551 770.833 324.345 770.554 324.012C770.275 323.679 770.137 323.248 770.17 322.812Z" fill="#1F1F1F" fill-opacity="0.9"/>
</g>
<g style="mix-blend-mode:screen">
<path d="M418.875 243.126C418.9 242.8 419.02 242.489 419.219 242.233C419.418 241.976 419.687 241.786 419.992 241.685C420.298 241.585 420.625 241.579 420.934 241.668C421.243 241.757 421.518 241.938 421.726 242.187C421.934 242.436 422.065 242.742 422.102 243.067C422.14 243.391 422.081 243.72 421.935 244.011C421.789 244.302 421.562 244.543 421.282 244.702C421.001 244.862 420.681 244.933 420.361 244.906C419.933 244.871 419.535 244.664 419.256 244.33C418.978 243.996 418.84 243.563 418.875 243.126Z" fill="#1F1F1F" fill-opacity="0.9"/>
</g>
<g style="mix-blend-mode:screen">
<path d="M562.298 273.035C562.324 272.709 562.444 272.398 562.642 272.142C562.841 271.885 563.111 271.695 563.416 271.594C563.721 271.493 564.049 271.487 564.357 271.577C564.666 271.666 564.942 271.846 565.15 272.095C565.358 272.344 565.488 272.651 565.526 272.976C565.563 273.3 565.505 273.629 565.359 273.92C565.213 274.211 564.985 274.452 564.705 274.611C564.425 274.77 564.105 274.841 563.785 274.815C563.356 274.78 562.959 274.573 562.68 274.239C562.401 273.905 562.264 273.472 562.298 273.035Z" fill="#1F1F1F" fill-opacity="0.9"/>
</g>
<g style="mix-blend-mode:screen">
<path d="M360.892 114.75C361.212 114.728 361.532 114.803 361.81 114.966C362.088 115.129 362.313 115.372 362.455 115.665C362.598 115.959 362.652 116.288 362.61 116.613C362.569 116.937 362.434 117.242 362.223 117.488C362.012 117.734 361.733 117.911 361.424 117.996C361.114 118.081 360.786 118.07 360.482 117.966C360.178 117.861 359.911 117.666 359.716 117.407C359.52 117.147 359.405 116.835 359.384 116.508C359.355 116.071 359.498 115.641 359.781 115.311C360.064 114.981 360.464 114.78 360.892 114.75Z" fill="#1F1F1F" fill-opacity="0.9"/>
</g>
<g style="mix-blend-mode:screen">
<path d="M219.609 112.204C219.93 112.182 220.249 112.257 220.527 112.42C220.806 112.583 221.03 112.826 221.173 113.119C221.315 113.412 221.369 113.742 221.328 114.067C221.286 114.391 221.152 114.696 220.94 114.942C220.729 115.188 220.451 115.365 220.141 115.45C219.831 115.535 219.503 115.524 219.199 115.419C218.895 115.314 218.629 115.12 218.433 114.861C218.238 114.601 218.122 114.288 218.101 113.962C218.073 113.525 218.216 113.095 218.499 112.765C218.781 112.435 219.181 112.234 219.609 112.204Z" fill="#1F1F1F" fill-opacity="0.9"/>
</g>
<g style="mix-blend-mode:screen">
<path d="M65.8485 316.738C66.1685 316.716 66.4877 316.791 66.7658 316.954C67.0439 317.117 67.2684 317.36 67.411 317.653C67.5536 317.946 67.6078 318.275 67.5668 318.599C67.5258 318.924 67.3914 319.228 67.1807 319.474C66.9699 319.721 66.6922 319.898 66.3827 319.984C66.0732 320.069 65.7458 320.059 65.4418 319.955C65.1378 319.851 64.8709 319.658 64.6748 319.399C64.4787 319.14 64.3622 318.828 64.3401 318.502C64.3254 318.285 64.3528 318.068 64.4207 317.862C64.4886 317.656 64.5956 317.465 64.7357 317.301C64.8758 317.138 65.0462 317.004 65.2371 316.907C65.4281 316.81 65.6358 316.753 65.8485 316.738Z" fill="#1F1F1F" fill-opacity="0.9"/>
</g>
<g style="mix-blend-mode:screen">
<path d="M68.8004 269.767C68.8427 269.224 69.0421 268.706 69.3733 268.278C69.7045 267.85 70.1528 267.532 70.6613 267.364C71.1699 267.196 71.7158 267.185 72.2303 267.333C72.7447 267.482 73.2045 267.782 73.5515 268.197C73.8985 268.611 74.1171 269.121 74.1797 269.663C74.2422 270.204 74.146 270.752 73.9031 271.237C73.6601 271.723 73.2814 272.124 72.8149 272.39C72.3483 272.656 71.8149 272.775 71.2819 272.732C70.928 272.703 70.583 272.604 70.2667 272.44C69.9505 272.275 69.6691 272.049 69.4387 271.774C69.2083 271.498 69.0333 271.179 68.9237 270.835C68.8142 270.491 68.7723 270.128 68.8004 269.767Z" fill="#1F1F1F" fill-opacity="0.9"/>
</g>
<g style="mix-blend-mode:screen">
<path d="M95.5188 168.384C95.5611 167.841 95.7605 167.323 96.0917 166.895C96.4229 166.467 96.8711 166.149 97.3796 165.981C97.8881 165.813 98.4342 165.802 98.9486 165.951C99.463 166.099 99.9228 166.399 100.27 166.814C100.617 167.228 100.835 167.739 100.898 168.28C100.96 168.821 100.864 169.369 100.621 169.854C100.378 170.34 99.9997 170.741 99.5332 171.007C99.0666 171.273 98.5331 171.392 98.0002 171.349C97.6463 171.321 97.3014 171.221 96.9851 171.057C96.6688 170.892 96.3874 170.666 96.157 170.391C95.9266 170.115 95.7516 169.797 95.6421 169.452C95.5326 169.108 95.4907 168.745 95.5188 168.384Z" fill="#1F1F1F" fill-opacity="0.9"/>
</g>
<g style="mix-blend-mode:screen">
<path d="M263.606 103.976C263.648 103.432 263.847 102.914 264.179 102.486C264.51 102.059 264.958 101.741 265.466 101.573C265.975 101.404 266.521 101.394 267.035 101.542C267.55 101.69 268.01 101.991 268.357 102.405C268.704 102.82 268.922 103.33 268.985 103.871C269.047 104.412 268.951 104.96 268.708 105.446C268.465 105.931 268.087 106.332 267.62 106.599C267.154 106.865 266.62 106.984 266.087 106.941C265.733 106.912 265.388 106.813 265.072 106.648C264.756 106.484 264.474 106.258 264.244 105.982C264.013 105.707 263.838 105.388 263.729 105.044C263.619 104.699 263.578 104.337 263.606 103.976Z" fill="#1F1F1F" fill-opacity="0.9"/>
</g>
<g style="mix-blend-mode:screen">
<path d="M245.917 201.782C245.959 201.239 246.158 200.72 246.489 200.292C246.821 199.865 247.269 199.547 247.777 199.379C248.286 199.21 248.832 199.2 249.347 199.348C249.861 199.496 250.321 199.797 250.668 200.211C251.015 200.626 251.233 201.136 251.296 201.677C251.358 202.218 251.262 202.766 251.019 203.252C250.776 203.737 250.398 204.138 249.931 204.405C249.464 204.671 248.931 204.79 248.398 204.747C248.044 204.718 247.699 204.619 247.383 204.454C247.067 204.29 246.785 204.064 246.555 203.788C246.324 203.513 246.149 203.194 246.04 202.85C245.93 202.505 245.888 202.143 245.917 201.782Z" fill="#1F1F1F" fill-opacity="0.9"/>
</g>
<g style="mix-blend-mode:screen">
<path d="M302.212 86.1417C302.254 85.5984 302.454 85.0802 302.785 84.6524C303.116 84.2246 303.564 83.9066 304.073 83.7385C304.581 83.5704 305.127 83.5598 305.642 83.708C306.156 83.8562 306.616 84.1566 306.963 84.5712C307.31 84.9858 307.529 85.496 307.591 86.0372C307.654 86.5784 307.558 87.1264 307.315 87.6119C307.072 88.0973 306.693 88.4985 306.226 88.7645C305.76 89.0306 305.226 89.1497 304.694 89.1067C304.34 89.0782 303.995 88.9788 303.678 88.8144C303.362 88.6499 303.081 88.4235 302.85 88.1482C302.62 87.8729 302.445 87.554 302.335 87.2097C302.226 86.8654 302.184 86.5025 302.212 86.1417Z" fill="#1F1F1F" fill-opacity="0.9"/>
</g>
<g style="mix-blend-mode:screen">
<path d="M143.424 72.16C143.466 71.6167 143.665 71.0984 143.996 70.6707C144.328 70.2429 144.776 69.9249 145.284 69.7568C145.793 69.5887 146.339 69.5781 146.853 69.7263C147.368 69.8745 147.828 70.1749 148.175 70.5895C148.522 71.0041 148.74 71.5142 148.803 72.0555C148.865 72.5967 148.769 73.1447 148.526 73.6301C148.283 74.1156 147.904 74.5167 147.438 74.7828C146.971 75.0488 146.438 75.1679 145.905 75.1249C145.551 75.0964 145.206 74.9971 144.89 74.8326C144.574 74.6681 144.292 74.4418 144.062 74.1664C143.831 73.8911 143.656 73.5722 143.547 73.2279C143.437 72.8836 143.395 72.5207 143.424 72.16Z" fill="#1F1F1F" fill-opacity="0.9"/>
</g>
<g style="mix-blend-mode:screen">
<path d="M172.093 45.5522C172.136 45.0089 172.335 44.4907 172.666 44.0629C172.998 43.6351 173.446 43.3171 173.954 43.149C174.463 42.9809 175.009 42.9703 175.523 43.1185C176.038 43.2668 176.498 43.5671 176.844 43.9817C177.191 44.3963 177.41 44.9065 177.473 45.4477C177.535 45.9889 177.439 46.5369 177.196 47.0224C176.953 47.5078 176.574 47.9089 176.108 48.175C175.641 48.4411 175.108 48.5602 174.575 48.5172C174.221 48.4887 173.876 48.3893 173.56 48.2249C173.243 48.0604 172.962 47.834 172.732 47.5587C172.501 47.2834 172.326 46.9644 172.217 46.6202C172.107 46.2759 172.065 45.913 172.093 45.5522Z" fill="#1F1F1F" fill-opacity="0.9"/>
</g>
<g style="mix-blend-mode:screen">
<path d="M144.424 286.46C144.466 285.917 144.666 285.399 144.997 284.971C145.328 284.543 145.776 284.225 146.285 284.057C146.793 283.889 147.339 283.878 147.854 284.027C148.368 284.175 148.828 284.475 149.175 284.89C149.522 285.304 149.741 285.815 149.803 286.356C149.866 286.897 149.77 287.445 149.527 287.93C149.284 288.416 148.905 288.817 148.438 289.083C147.972 289.349 147.438 289.468 146.905 289.425C146.552 289.397 146.207 289.297 145.89 289.133C145.574 288.969 145.293 288.742 145.062 288.467C144.832 288.191 144.657 287.873 144.547 287.528C144.438 287.184 144.396 286.821 144.424 286.46Z" fill="#1F1F1F" fill-opacity="0.9"/>
</g>
<g style="mix-blend-mode:screen">
<path d="M134.638 182.14C134.681 181.597 134.88 181.079 135.211 180.651C135.542 180.223 135.991 179.905 136.499 179.737C137.008 179.569 137.554 179.558 138.068 179.706C138.583 179.855 139.042 180.155 139.389 180.57C139.736 180.984 139.955 181.494 140.018 182.036C140.08 182.577 139.984 183.125 139.741 183.61C139.498 184.096 139.119 184.497 138.653 184.763C138.186 185.029 137.653 185.148 137.12 185.105C136.766 185.077 136.421 184.977 136.105 184.813C135.788 184.648 135.507 184.422 135.277 184.147C135.046 183.871 134.871 183.552 134.762 183.208C134.652 182.864 134.61 182.501 134.638 182.14Z" fill="#1F1F1F" fill-opacity="0.9"/>
</g>
<g style="mix-blend-mode:screen" opacity="0.3">
<g style="mix-blend-mode:screen" opacity="0.3">
<path d="M110.283 323.605L110.397 322.994L122.161 262.2L147.203 287.144L147.365 286.796L182.841 209.547L212.376 226.979L182.317 247.982L182.414 248.191L207.786 303.853L254.961 251.498L213.387 226.946L248.684 202.283L289.772 205.59L300.352 250.825L305.758 206.88L330.26 208.858L378.462 237.213L378.538 236.844L386.534 198.977L398.585 206.587L398.73 206.362L426.654 163.16L456.043 183.165L457.54 205.866L479.49 199.125L515.874 223.892L551.366 215.295L595.06 254.92L586.178 202.867L586.118 202.807L523.043 138.012L541.192 179.61L479.56 198.525L456.545 182.857L452.523 122.085L426.481 162.394L397.779 142.851L397.692 143.248L386.107 198.106L349.555 175.102L314.7 128.914L305.223 206.301L290.167 205.083L279.095 157.759L300.563 167.679L265.552 102.273L278.311 156.833L187.544 114.981L187.431 115.037L137.515 138.801L192.291 187.635L182.56 208.77L137.147 181.925L137.077 182.3L121.831 261.109L96.0591 235.427L98.5135 168.676L146.959 71.3112L145.954 72.1654L-0.0161743 195.979L0.18927 196.188L71.2982 270.175L110.283 323.605ZM121.701 261.743L109.986 322.277L71.7091 269.822L0.800171 196.017L145.256 73.444L97.9729 168.561V168.621L95.5185 235.648L121.701 261.743ZM254.107 251.63L207.932 302.856L183.003 248.18L212.895 227.293L254.107 251.63ZM182.371 209.271L147.035 286.207L122.285 261.556L137.525 182.785L182.371 209.271ZM585.68 203.132L594.265 253.46L551.507 214.694L515.971 223.303L480.155 198.921L541.938 179.958L524.735 140.531L585.68 203.132ZM305.169 206.846L300.163 247.75L290.307 205.645L305.169 206.846ZM386.004 198.679L378.046 236.348L330.379 208.307H330.319L305.78 206.328L315.09 130.275L349.203 175.466L349.247 175.494L386.004 198.679ZM248.517 201.716L248.435 201.771L212.846 226.643L183.046 209.045L192.707 188.015L208.737 202.294L210.072 148.902L192.524 187.117L138.461 138.955L187.534 115.549L278.457 157.472L289.604 205.039L248.517 201.716ZM426.2 162.851L398.422 205.838L386.615 198.403L398.152 143.761L426.2 162.851ZM478.906 198.729L458.038 205.138L456.605 183.551L478.906 198.729ZM209.489 151.526L208.245 201.126L192.967 187.519L209.489 151.526ZM452.107 123.755L455.994 182.471L426.924 162.697L452.107 123.755ZM267.033 106.12L299.336 166.477L278.959 157.081L267.033 106.12Z" fill="#1F1F1F" fill-opacity="0.9"/>
</g>
</g>
<g style="mix-blend-mode:screen">
<path d="M551.269 215.345L586.626 203.049L541.132 179.247L551.269 215.345ZM585.248 202.95L551.621 214.639L541.997 180.321L585.248 202.95Z" fill="#1F1F1F" fill-opacity="0.9"/>
</g>
<g style="mix-blend-mode:screen">
<path d="M541.531 179.515L541.576 180.064L491.355 184.3L491.311 183.75L541.531 179.515Z" fill="#1F1F1F" fill-opacity="0.9"/>
</g>
<g style="mix-blend-mode:screen" opacity="0.3">
<g style="mix-blend-mode:screen" opacity="0.3">
<path d="M564.293 273.636L551.702 214.931L551.177 215.053L563.536 272.693L518.323 252.198L518.258 252.203L470.191 254.518L458.054 206.152L457.529 206.29L469.775 255.091L469.996 255.08L518.22 252.754L564.293 273.636Z" fill="#1F1F1F" fill-opacity="0.9"/>
</g>
</g>
<g style="mix-blend-mode:screen" opacity="0.6">
<g style="mix-blend-mode:screen" opacity="0.6">
<path d="M254.366 252.451L300.098 167.37L348.955 175.521L330.065 208.461L299.633 249.674L378.073 237.103L378.192 237.351L378.36 237.097L420.583 243.551L420.68 243.451L457.903 205.772H458.87L372.91 160.14L398.071 143.562L452.334 123.21L523.427 139.445L490.989 184.008L491.086 184.168L515.901 224.124L541.771 179.925L541.306 179.644L515.896 223.071L491.649 184.03L524.335 139.093L452.285 122.636L452.21 122.664L397.833 143.055L372.364 159.831L314.922 129.327H314.83L209.289 150.01L248.328 202.09L254.366 252.451ZM299.812 166.764L299.72 166.935L254.702 250.704L248.868 201.914L248.825 201.853L210.273 150.424L314.863 129.928L371.861 160.178L349.328 175.025L299.812 166.764ZM377.83 236.585L300.866 248.918L330.514 208.792L349.366 175.929L377.83 236.585ZM457.124 205.783L420.394 242.961L378.695 236.59L398.65 206.494L457.124 205.783ZM456.708 205.232L398.363 205.943L398.282 206.064L378.279 236.237L349.739 175.406L372.445 160.465L456.708 205.232Z" fill="#1F1F1F" fill-opacity="0.9"/>
</g>
</g>
<g style="mix-blend-mode:screen">
<path d="M399.071 143.761L361.054 116.095L360.93 116.128L313.652 129.68L399.071 143.761ZM360.968 116.701L396.893 142.846L316.171 129.542L360.968 116.701Z" fill="#1F1F1F" fill-opacity="0.9"/>
</g>
<g style="mix-blend-mode:screen">
<path d="M65.6863 318.408L66.2269 318.37C66.1404 317.086 69.8115 286.179 71.7632 270.021L71.2225 269.949C70.9955 271.861 65.5782 316.75 65.6863 318.408Z" fill="#1F1F1F" fill-opacity="0.9"/>
</g>
<g style="mix-blend-mode:screen">
<path d="M210.051 150.286L220.08 113.56L187.928 114.954L196.692 84.3341L196.173 84.1797L187.198 115.538L219.361 114.144L209.532 150.137L210.051 150.286Z" fill="#1F1F1F" fill-opacity="0.9"/>
</g>
<g style="mix-blend-mode:screen">
<path d="M138.271 138.905C138.482 136.199 146.305 73.0528 146.381 72.4135L145.84 72.3418C145.759 72.9811 137.931 136.139 137.731 138.861L138.271 138.905Z" fill="#1F1F1F" fill-opacity="0.9"/>
</g>
<g style="mix-blend-mode:screen" opacity="0.8">
<g style="mix-blend-mode:screen" opacity="0.8">
<path d="M182.895 248.224L208.656 201.975L248.69 202.278L248.76 202.228L300.174 167.249L300.206 167.172L315.187 129.636L315.165 129.553L305.094 85.9708L266.217 103.926L219.825 113.549L196.584 84.0089L196.492 83.9868L145.273 71.8954L187.355 115.422L209.24 149.845L137.736 138.564L137.066 182.256L95.5672 235.367L95.9888 235.708L137.601 182.454L137.606 182.361L138.266 139.208L210.348 150.578L187.755 115.053L146.965 72.8599L196.281 84.5049L219.609 114.155L219.771 114.122L266.384 104.455L266.411 104.444L304.715 86.7479L314.619 129.591L299.736 166.885L248.527 201.727L208.342 201.424L208.267 201.561L182.425 247.948L182.895 248.224Z" fill="#1F1F1F" fill-opacity="0.9"/>
</g>
</g>
<g style="mix-blend-mode:screen">
<path d="M299.909 167.337L300.006 166.797L210.424 150.054L266.33 104.521L314.776 129.861L315.025 129.371L266.271 103.865L266.13 103.976L209.159 150.374L299.909 167.337Z" fill="#1F1F1F" fill-opacity="0.9"/>
</g>
<g style="mix-blend-mode:screen">
<path d="M110.229 323.225L110.321 323.137L147.673 286.515L71.9527 269.806L95.9025 235.835L183.241 248.45L137.504 182.124L137.423 182.096L98.8165 168.517L138.434 138.905L138.18 138.679L58.437 67.3653L58.0801 67.7786L137.569 138.867L97.665 168.693L137.163 182.586L182.079 247.723L95.6539 235.24L95.5565 235.378L71.0336 270.164L146.565 286.835L110.035 322.652L66.1085 318.127L28.7672 261.032L28.3185 261.341L65.8003 318.651L65.9301 318.662L110.229 323.225Z" fill="#1F1F1F" fill-opacity="0.9"/>
</g>
<g style="mix-blend-mode:screen">
<path d="M208.764 202.057V201.705L210.062 150.374L136.536 182.432L208.764 202.057ZM209.499 151.201L208.24 201.352L138.158 182.305L209.499 151.201Z" fill="#1F1F1F" fill-opacity="0.9"/>
</g>
<g style="mix-blend-mode:screen">
<path d="M95.6537 235.78L95.9024 235.295L35.514 202.664L98.5947 168.726L64.1998 92.6228L63.7133 92.8488L97.8865 168.484L34.3571 202.658L95.6537 235.78Z" fill="#1F1F1F" fill-opacity="0.9"/>
</g>
<g style="mix-blend-mode:screen">
<path d="M470.034 255.102L515.69 224.085L518.004 252.501L518.545 252.457L516.155 223.11L469.932 254.512L420.664 243.016L398.736 206.08L398.277 206.367L420.318 243.501L470.034 255.102Z" fill="#1F1F1F" fill-opacity="0.9"/>
</g>
<g style="mix-blend-mode:screen" opacity="0.3">
<g style="mix-blend-mode:screen" opacity="0.3">
<path d="M453.578 123.287L385.004 86.274L385.231 85.9819L384.572 86.0866H304.905L194.319 83.9427L266.282 104.472L322.361 96.0176L360.925 116.668H360.968L453.578 123.287ZM384.658 86.7093L451.069 122.532L361.508 116.161L384.658 86.7093ZM383.95 86.7369L360.93 116.051L323.27 95.8799L383.95 86.7369ZM321.551 95.5823L266.32 103.91L198.541 84.5765L304.834 86.6322L321.551 95.5823ZM380.912 86.6377L322.459 95.4555L306.002 86.6377H380.912Z" fill="#1F1F1F" fill-opacity="0.9"/>
</g>
</g>
<g style="mix-blend-mode:screen" opacity="0.3">
<g style="mix-blend-mode:screen" opacity="0.3">
<path d="M282.128 298.436L343.349 266.058L343.1 265.573L283.123 297.29L300.504 249.392L299.996 249.2L282.128 298.436Z" fill="#1F1F1F" fill-opacity="0.9"/>
</g>
</g>
<g style="mix-blend-mode:screen" opacity="0.6">
<g style="mix-blend-mode:screen" opacity="0.6">
<path d="M207.835 303.622H207.878L283.09 298.111L254.978 251.817L300.207 249.574L343.273 266.108L343.392 266.009L378.403 237.009L378.063 236.585L343.176 265.501L300.293 249.023H300.239L254.523 251.294L182.56 247.805L182.474 247.899L146.625 286.824L207.835 303.622ZM282.16 297.62L207.883 303.065L147.625 286.532L182.766 248.367L254.372 251.834L282.16 297.62Z" fill="#1F1F1F" fill-opacity="0.9"/>
</g>
</g>
<g style="mix-blend-mode:screen" opacity="0.4">
<g style="mix-blend-mode:screen" opacity="0.4">
<path d="M152.301 340.547L208.007 303.578L207.71 303.115L152.749 339.593L147.386 286.648L146.851 286.708L152.301 340.547Z" fill="#1F1F1F" fill-opacity="0.9"/>
</g>
</g>
<g style="mix-blend-mode:screen" opacity="0.3">
<g style="mix-blend-mode:screen" opacity="0.3">
<path d="M304.753 86.5881L305.056 86.1307L245.992 45.4971H174.321L196.195 84.3947L196.665 84.1191L175.251 46.0482H245.824L304.753 86.5881Z" fill="#1F1F1F" fill-opacity="0.9"/>
</g>
</g>
<g style="mix-blend-mode:screen">
<path d="M219.972 113.951L246.511 44.9515L196.265 84.0364L196.595 84.4773L245.3 46.5883L219.469 113.752L219.972 113.951Z" fill="#1F1F1F" fill-opacity="0.9"/>
</g>
<g style="mix-blend-mode:screen" opacity="0.5">
<g style="mix-blend-mode:screen" opacity="0.5">
<path d="M62.6805 84.7584L146.24 72.6394L146.3 72.5843L175.25 45.712L174.915 45.5247L108.039 9.11813L107.785 9.60863L174.321 45.8278L145.997 72.1159L62.6048 84.2128L62.6805 84.7584Z" fill="#1F1F1F" fill-opacity="0.9"/>
</g>
</g>
<g style="mix-blend-mode:screen">
<path d="M523.818 139.01L523.954 139.544L424.881 165.719L424.745 165.186L523.818 139.01Z" fill="#1F1F1F" fill-opacity="0.9"/>
</g>
<g style="mix-blend-mode:screen" opacity="0.3">
<g style="mix-blend-mode:screen" opacity="0.3">
<path d="M420.436 242.976L420.584 243.506L343.315 266.062L343.166 265.532L420.436 242.976Z" fill="#1F1F1F" fill-opacity="0.9"/>
</g>
</g>
<g style="mix-blend-mode:screen" opacity="0.8">
<g style="mix-blend-mode:screen" opacity="0.8">
<path d="M732.083 303.319L723.449 280.712L774.852 292.616L774.971 292.082L722.573 279.946L731.25 302.652L651.367 291.966L603.478 282.856L594.828 253.768L563.958 272.815L516.069 223.352L516.004 223.336L458.433 205.414L491.719 184.102L452.551 122.769L452.096 123.072L490.968 183.931L457.146 205.59L515.783 223.843L563.872 273.515L564.055 273.399L594.514 254.606L603.056 283.335L651.281 292.511L732.083 303.319Z" fill="#1F1F1F" fill-opacity="0.9"/>
</g>
</g>
<g style="mix-blend-mode:screen" opacity="0.3">
<g style="mix-blend-mode:screen" opacity="0.3">
<path d="M752.583 301.896L753.123 301.924L752.437 315.419L751.897 315.391L752.583 301.896Z" fill="#1F1F1F" fill-opacity="0.9"/>
</g>
</g>
<g style="mix-blend-mode:screen" opacity="0.75">
<g style="mix-blend-mode:screen" opacity="0.75">
<path d="M796.975 362.536L797.429 362.238L772.252 322.79L753.097 301.759L729.126 253.829L695.904 269.238L695.866 269.332L672.116 324.482L672.614 324.708L696.32 269.651L728.877 254.551L752.654 302.079L752.675 302.106L771.83 323.126L796.975 362.536Z" fill="#1F1F1F" fill-opacity="0.9"/>
</g>
</g>
<g style="mix-blend-mode:screen" opacity="0.3">
<g style="mix-blend-mode:screen" opacity="0.3">
<path d="M624.957 320.018L651.675 292.275L651.556 292.087L615.29 236.645L614.836 236.948L650.983 292.208L624.568 319.632L624.957 320.018Z" fill="#1F1F1F" fill-opacity="0.9"/>
</g>
</g>
<g style="mix-blend-mode:screen">
<path d="M651.313 292.556L696.126 269.745L723.2 280.707L729.266 254.253L728.736 254.127L722.816 279.957L696.099 269.139L695.99 269.194L651.351 291.922L595.12 254.16L615.447 236.827L586.14 202.818L585.734 203.182L614.68 236.766L594.217 254.215L594.52 254.419L651.313 292.556Z" fill="#1F1F1F" fill-opacity="0.9"/>
</g>
<g style="mix-blend-mode:screen" opacity="0.3">
<g style="mix-blend-mode:screen" opacity="0.3">
<path d="M653.81 273.757L653.929 273.746L696.136 269.717L696.088 269.166L654 273.184L615.247 236.596L614.88 236.998L653.81 273.757Z" fill="#1F1F1F" fill-opacity="0.9"/>
</g>
</g>
<g style="mix-blend-mode:screen" opacity="0.3">
<g style="mix-blend-mode:screen" opacity="0.3">
<path d="M772.262 323.324L775.225 291.916L752.816 301.649L731.656 302.713L731.683 303.264L752.935 302.195L752.978 302.173L774.598 292.787L771.792 322.558L752.297 315.157L752.108 315.675L772.262 323.324Z" fill="#1F1F1F" fill-opacity="0.9"/>
</g>
</g>
<g style="mix-blend-mode:screen" opacity="0.3">
<g style="mix-blend-mode:screen" opacity="0.3">
<path d="M672.143 324.746L672.586 324.438L651.08 292.137L654.167 273.515L653.637 273.426L650.512 292.264L650.572 292.357L672.143 324.746Z" fill="#1F1F1F" fill-opacity="0.9"/>
</g>
</g>
<g style="mix-blend-mode:screen">
<path d="M731.572 302.741L731.754 303.26L672.451 324.87L672.269 324.351L731.572 302.741Z" fill="#1F1F1F" fill-opacity="0.9"/>
</g>
<g style="mix-blend-mode:screen" opacity="0.3">
<g style="mix-blend-mode:screen" opacity="0.3">
<path d="M672.338 324.867L672.392 324.316L624.924 319.555L603.44 282.851H603.332L562.693 272.594L624.557 320.012L624.6 320.084H624.735L672.338 324.867ZM603.088 283.335L623.827 318.761L565.136 273.757L603.088 283.335Z" fill="#1F1F1F" fill-opacity="0.9"/>
</g>
</g>
<g style="mix-blend-mode:screen">
<path d="M797.007 362.58L797.396 362.194L752.372 315.195L752.34 315.179L731.807 302.751L731.531 303.225L752.032 315.631L797.007 362.58Z" fill="#1F1F1F" fill-opacity="0.9"/>
</g>
<g style="mix-blend-mode:screen" opacity="0.1">
<g style="mix-blend-mode:screen" opacity="0.1">
<path d="M672.365 324.592L650.799 292.203L684.394 296.661L672.365 324.592Z" fill="#1F1F1F" fill-opacity="0.9"/>
</g>
</g>
<g style="mix-blend-mode:screen" opacity="0.3">
<g style="mix-blend-mode:screen" opacity="0.3">
<path d="M182.789 247.851L282.729 297.673L282.491 298.168L182.551 248.346L182.789 247.851Z" fill="#1F1F1F" fill-opacity="0.9"/>
</g>
</g>
</g>
<defs>
<filter id="filter0_f" x="746" y="463" width="145" height="16" filterUnits="userSpaceOnUse" color-interpolation-filters="sRGB">
<feFlood flood-opacity="0" result="BackgroundImageFix"/>
<feBlend mode="normal" in="SourceGraphic" in2="BackgroundImageFix" result="shape"/>
<feGaussianBlur stdDeviation="2.5" result="effect1_foregroundBlur"/>
</filter>
<filter id="filter1_f" x="781" y="465" width="84" height="9" filterUnits="userSpaceOnUse" color-interpolation-filters="sRGB">
<feFlood flood-opacity="0" result="BackgroundImageFix"/>
<feBlend mode="normal" in="SourceGraphic" in2="BackgroundImageFix" result="shape"/>
<feGaussianBlur stdDeviation="1.5" result="effect1_foregroundBlur"/>
</filter>
<linearGradient id="paint0_linear" x1="850.173" y1="468" x2="771.25" y2="468" gradientUnits="userSpaceOnUse">
<stop stop-color="#6C6969"/>
<stop offset="1" stop-color="#BEBEBE"/>
</linearGradient>
<linearGradient id="paint1_linear" x1="797.31" y1="403.153" x2="797.31" y2="469" gradientUnits="userSpaceOnUse">
<stop stop-color="#D9D9D9"/>
<stop offset="1" stop-color="#1F1F1F"/>
</linearGradient>
<linearGradient id="paint2_linear" x1="841.133" y1="468.802" x2="841.133" y2="349.678" gradientUnits="userSpaceOnUse">
<stop stop-color="#373737"/>
<stop offset="1" stop-color="#C6C9CB"/>
</linearGradient>
<clipPath id="clip0">
<rect width="887" height="479" fill="white" transform="matrix(-1 0 0 1 887 0)"/>
</clipPath>
</defs>
</svg>
