<svg width="49" height="50" viewBox="0 0 49 50" fill="none" xmlns="http://www.w3.org/2000/svg">
<g clip-path="url(#clip0)">
<path d="M16.3159 38.8086C16.3159 39.0039 16.0897 39.1602 15.8045 39.1602C15.4799 39.1895 15.2537 39.0332 15.2537 38.8086C15.2537 38.6133 15.4799 38.457 15.7651 38.457C16.0602 38.4277 16.3159 38.584 16.3159 38.8086ZM13.2573 38.3691C13.1884 38.5645 13.3851 38.7891 13.6802 38.8477C13.9359 38.9453 14.2309 38.8477 14.2899 38.6523C14.3489 38.457 14.1621 38.2324 13.867 38.1445C13.6113 38.0762 13.3261 38.1738 13.2573 38.3691ZM17.6042 38.2031C17.319 38.2715 17.1223 38.457 17.1518 38.6816C17.1814 38.877 17.4371 39.0039 17.7321 38.9355C18.0173 38.8672 18.214 38.6816 18.1845 38.4863C18.155 38.3008 17.8895 38.1738 17.6042 38.2031ZM24.0755 0.78125C10.4347 0.78125 0 11.0645 0 24.6094C0 35.4395 6.86467 44.707 16.6699 47.9688C17.9288 48.1934 18.3714 47.4219 18.3714 46.7871C18.3714 46.1816 18.3419 42.8418 18.3419 40.791C18.3419 40.791 11.4575 42.2559 10.0118 37.8809C10.0118 37.8809 8.89064 35.0391 7.27773 34.3066C7.27773 34.3066 5.02557 32.7734 7.43509 32.8027C7.43509 32.8027 9.88395 32.998 11.2313 35.3223C13.3851 39.0918 16.9945 38.0078 18.4009 37.3633C18.6271 35.8008 19.2663 34.7168 19.9744 34.0723C14.4768 33.4668 8.92998 32.6758 8.92998 23.2812C8.92998 20.5957 9.67742 19.248 11.251 17.5293C10.9953 16.8945 10.1593 14.2773 11.5067 10.8984C13.5622 10.2637 18.2927 13.5352 18.2927 13.5352C20.2596 12.9883 22.3741 12.7051 24.4689 12.7051C26.5637 12.7051 28.6782 12.9883 30.6452 13.5352C30.6452 13.5352 35.3757 10.2539 37.4312 10.8984C38.7785 14.2871 37.9426 16.8945 37.6869 17.5293C39.2604 19.2578 40.2242 20.6055 40.2242 23.2812C40.2242 32.7051 34.4315 33.457 28.9339 34.0723C29.8387 34.8438 30.6058 36.3086 30.6058 38.6035C30.6058 41.8945 30.5763 45.9668 30.5763 46.7676C30.5763 47.4023 31.0287 48.1738 32.2777 47.9492C42.1125 44.707 48.7805 35.4395 48.7805 24.6094C48.7805 11.0645 37.7164 0.78125 24.0755 0.78125ZM9.5594 34.4629C9.43155 34.5605 9.46105 34.7852 9.62825 34.9707C9.7856 35.127 10.0118 35.1953 10.1397 35.0684C10.2675 34.9707 10.238 34.7461 10.0708 34.5605C9.91345 34.4043 9.68725 34.3359 9.5594 34.4629ZM8.49725 33.6719C8.4284 33.7988 8.52675 33.9551 8.72345 34.0527C8.8808 34.1504 9.0775 34.1211 9.14634 33.9844C9.21518 33.8574 9.11684 33.7012 8.92014 33.6035C8.72345 33.5449 8.56609 33.5742 8.49725 33.6719ZM11.6837 37.1484C11.5264 37.2754 11.5854 37.5684 11.8116 37.7539C12.0378 37.9785 12.323 38.0078 12.4508 37.8516C12.5787 37.7246 12.5197 37.4316 12.323 37.2461C12.1066 37.0215 11.8116 36.9922 11.6837 37.1484ZM10.5625 35.7129C10.4052 35.8105 10.4052 36.0645 10.5625 36.2891C10.7199 36.5137 10.9854 36.6113 11.1133 36.5137C11.2707 36.3867 11.2707 36.1328 11.1133 35.9082C10.9756 35.6836 10.7199 35.5859 10.5625 35.7129Z" fill="#333333"/>
</g>
<defs>
<clipPath id="clip0">
<rect width="48.7805" height="50" fill="white"/>
</clipPath>
</defs>
</svg>
