<svg width="50" height="50" viewBox="0 0 50 50" fill="none" xmlns="http://www.w3.org/2000/svg">
<g clip-path="url(#clip0)">
<path fill-rule="evenodd" clip-rule="evenodd" d="M3.43581 16.7065C-1.14527 21.2875 -1.14527 28.7141 3.43581 33.2947L16.7058 46.5652C21.2869 51.1458 28.7134 51.1458 33.2941 46.5652L46.5645 33.2947C51.1452 28.7137 51.1452 21.2871 46.5645 16.7065L33.2941 3.43646C28.713 -1.14419 21.2865 -1.14419 16.7058 3.43646L3.43581 16.7065ZM30.8056 30.8067C34.0124 27.5999 34.0124 22.4013 30.8056 19.1949C27.5993 15.9882 22.4006 15.9882 19.1943 19.1949C15.9875 22.4017 15.9875 27.5999 19.1943 30.8067C22.401 34.013 27.5993 34.013 30.806 30.8067H30.8056Z" fill="#333333"/>
</g>
<defs>
<clipPath id="clip0">
<rect width="50" height="50" fill="white"/>
</clipPath>
</defs>
</svg>
