<svg width="50" height="50" viewBox="0 0 50 50" fill="none" xmlns="http://www.w3.org/2000/svg">
<path d="M0.692521 16.6205H11.0803V50H0.692521V16.6205ZM5.95558 0C9.27968 0 11.9113 2.63165 11.9113 5.95575C11.9113 9.27985 9.27968 11.9113 5.95558 11.9113C2.63148 11.9113 0 9.27985 0 5.95575C0 2.63165 2.63148 0 5.95558 0Z" fill="#333333"/>
<path d="M17.5898 16.6205H27.5621V21.1912H27.7007C29.0858 18.5597 32.4098 15.7896 37.5345 15.7896C48.0608 15.7896 49.9999 22.7148 49.9999 31.7175V50H39.6121V33.7951C39.6121 29.917 39.612 24.9308 34.2104 24.9308C28.8087 24.9308 27.9777 29.086 27.9777 33.5182V50H17.5898V16.6205Z" fill="#333333"/>
</svg>
