<svg width="74" height="50" viewBox="0 0 74 50" fill="none" xmlns="http://www.w3.org/2000/svg">
<path d="M72.9415 32.7903C72.6818 31.9175 72.1171 31.167 71.3502 30.6755C70.5834 30.184 69.6654 29.9843 68.7636 30.1127C67.8618 30.2411 67.0361 30.6891 66.437 31.3751C65.8379 32.061 65.5053 32.9393 65.4997 33.8499C65.1028 33.8882 64.7027 33.9168 64.3058 33.9328C64.2597 32.9192 63.8662 31.9524 63.1914 31.1946C62.5166 30.4368 61.6015 29.9342 60.5999 29.771C59.5982 29.6079 58.5708 29.7942 57.6903 30.2987C56.8098 30.8033 56.1297 31.5953 55.7642 32.5417C55.3041 32.3675 54.8509 32.179 54.4046 31.9761C54.8915 30.905 55.004 29.7012 54.7239 28.5585C54.4438 27.4157 53.7874 26.4004 52.8603 25.6756C51.9331 24.9509 50.7891 24.5589 49.6122 24.5627C48.4353 24.5665 47.2938 24.9659 46.3714 25.6966C46.0197 25.2536 45.686 24.7974 45.3704 24.3278C47.6825 23.1884 49.4797 21.2193 50.4035 18.8136C51.3273 16.4078 51.3098 13.7423 50.3543 11.349C49.3989 8.95558 47.5759 7.01037 45.249 5.90147C42.9221 4.79258 40.2626 4.60156 37.8011 5.36653C37.5811 5.43345 37.3659 5.50993 37.1523 5.5912L50.0357 35.0577C50.1951 35.0434 50.3625 35.0227 50.5267 34.994C51.7392 34.7815 52.8377 34.1478 53.6284 33.2046C54.2309 33.484 54.8445 33.7384 55.4693 33.9678C55.4469 34.4634 55.5095 34.9592 55.6542 35.4338C55.9721 36.4642 56.655 37.3433 57.5749 37.9065C58.4947 38.4697 59.5884 38.6782 60.651 38.4931C60.8325 38.4608 61.0119 38.4177 61.1882 38.364C61.7449 38.1959 62.2627 37.9191 62.7117 37.5496C63.1606 37.1801 63.5318 36.7252 63.8038 36.2113C63.943 35.9486 64.0557 35.6727 64.1401 35.3875C64.6804 35.37 65.2207 35.3286 65.7579 35.2728C66.0729 36.096 66.664 36.7843 67.4303 37.2203C68.1966 37.6562 69.0905 37.8126 69.9594 37.6629C70.1157 37.6357 70.2701 37.5985 70.4216 37.5514C71.3864 37.2527 72.1934 36.5839 72.6658 35.6915C73.1381 34.799 73.2373 33.7557 72.9415 32.7903Z" fill="#1F1F1F"/>
<path d="M10.7908 48.3337C14.9092 47.4134 17.5016 43.3297 16.581 39.2126C15.6604 35.0955 11.5755 32.5039 7.45708 33.4242C3.33865 34.3445 0.746276 38.4281 1.66685 42.5452C2.58743 46.6624 6.67236 49.2539 10.7908 48.3337Z" fill="#1F1F1F"/>
<path d="M44.5928 31.3642C44.3542 30.587 44.2998 29.7649 44.4336 28.9629C44.5675 28.161 44.8861 27.4011 45.3642 26.7434C44.8816 26.1473 44.4294 25.5272 44.0094 24.8855C43.9457 24.9062 43.8851 24.9349 43.8198 24.954C43.4128 25.0783 42.9987 25.1778 42.5797 25.252C40.07 25.6903 37.4869 25.1781 35.3344 23.8156C33.1819 22.453 31.6144 20.3376 30.9375 17.8822C30.2607 15.4267 30.5232 12.8073 31.6738 10.5348C32.8243 8.26239 34.7804 6.49991 37.1605 5.5912L35.5204 1.86586C35.278 1.31138 34.8792 0.839571 34.3728 0.508178C33.8663 0.176785 33.2742 0.000187369 32.6689 0L18.0593 0L39.2835 48.5171H55.9206L50.0359 35.0625C48.8432 35.1569 47.6539 34.8419 46.6643 34.1695C45.6747 33.4972 44.944 32.5077 44.5928 31.3642Z" fill="#1F1F1F"/>
</svg>
