<svg width="66" height="50" viewBox="0 0 66 50" fill="none" xmlns="http://www.w3.org/2000/svg">
<path d="M59.5182 0H6.10676C2.73409 0 0 2.73409 0 6.10676C0 8.14858 1.02045 10.0553 2.71934 11.1879L27.6122 27.7831C28.0058 28.0455 28.4143 28.2752 28.8341 28.472C31.772 29.8497 35.2574 29.6201 38.0128 27.7831L62.9057 11.1879C64.6046 10.0553 65.625 8.14858 65.625 6.10676C65.625 2.73409 62.8909 0 59.5182 0Z" fill="#333333"/>
<path d="M1.5625 21.875C1.5625 21.2225 1.62915 20.5857 1.75601 19.9708C2.11387 18.2363 4.16929 17.7882 5.64283 18.7706L25.012 31.6834C29.7356 34.8324 35.8894 34.8324 40.613 31.6834L59.9822 18.7706C61.4557 17.7882 63.5111 18.2363 63.869 19.9708C63.9958 20.5857 64.0625 21.2225 64.0625 21.875V43.75C64.0625 47.2018 61.2643 50 57.8125 50H7.8125C4.36072 50 1.5625 47.2018 1.5625 43.75V21.875Z" fill="#333333"/>
</svg>
