<svg width="50" height="50" viewBox="0 0 50 50" fill="none" xmlns="http://www.w3.org/2000/svg">
<path d="M46.2172 41.4078L50 45.0602V45.1813H30.8125V45.0602L34.6641 41.4078C35.075 41.0695 35.2719 40.5328 35.1773 40.0055V16.6578C35.1773 15.6711 35.1773 14.3375 35.3492 13.1969L22.4062 45.6484H22.2523L8.85 15.7922L8.28516 14.4938V34.0703C8.12457 35.3797 8.34454 36.7076 8.91875 37.8953L14.3109 45.0609V45.182H0V45.0609L5.39219 37.8781C5.9625 36.6969 6.17344 35.375 6.025 34.0703V12.4344C6.1125 11.3688 5.79453 10.3094 5.13438 9.475L1.31797 4.47266V4.35156H15.0117L26.4805 29.6391L36.5797 4.35156H49.9828V4.47266L46.2172 8.71328C45.7656 9.04687 45.5406 9.61016 45.6352 10.1664V40.0055C45.5858 40.2705 45.6146 40.5441 45.7179 40.7931C45.8212 41.0421 45.9947 41.2556 46.2172 41.4078Z" fill="#333333"/>
</svg>
