<svg width="143" height="50" viewBox="0 0 143 50" fill="none" xmlns="http://www.w3.org/2000/svg">
<path d="M0.3825 32.08C0.1905 31.952 0.0838333 31.8133 0.0625 31.664C0.0411667 31.5147 0.0518333 31.376 0.0945 31.248C0.1585 31.0987 0.2545 30.96 0.3825 30.832C1.5345 30.1067 2.77183 29.4453 4.0945 28.848C5.4385 28.2507 6.8145 27.7173 8.2225 27.248C9.6305 26.7787 11.0492 26.3733 12.4785 26.032C13.9292 25.6907 15.3478 25.392 16.7345 25.136C17.8012 23.8347 18.9318 22.512 20.1265 21.168C22.7718 18.16 25.0865 15.6213 27.0705 13.552C29.0545 11.4613 30.7612 9.72267 32.1905 8.336C33.6412 6.94933 34.8358 5.872 35.7745 5.104C36.7132 4.31467 37.4705 3.728 38.0465 3.344C38.6225 2.93867 39.0385 2.68267 39.2945 2.576C39.5718 2.448 39.7532 2.36267 39.8385 2.32C40.0945 2.17066 40.3398 2.128 40.5745 2.192C40.8092 2.256 41.1398 2.40533 41.5665 2.64C41.7798 2.768 41.9078 2.928 41.9505 3.12C42.0145 3.312 42.0145 3.52533 41.9505 3.76C41.9078 3.97333 41.8332 4.208 41.7265 4.464C41.6198 4.72 41.5132 4.96533 41.4065 5.2C41.3638 5.30666 41.1718 5.65866 40.8305 6.256C40.5105 6.85333 40.0838 7.632 39.5505 8.592C39.0172 9.53067 38.3985 10.6187 37.6945 11.856C37.0118 13.072 36.2758 14.3733 35.4865 15.76C34.7185 17.1253 33.9185 18.5333 33.0865 19.984C32.2758 21.4347 31.4758 22.8533 30.6865 24.24C31.1132 24.368 31.4545 24.5173 31.7105 24.688C31.9665 24.8373 32.1585 24.9867 32.2865 25.136C32.4358 25.2853 32.5318 25.424 32.5745 25.552C32.6172 25.68 32.6385 25.776 32.6385 25.84C32.6385 25.9253 32.5638 25.9787 32.4145 26C32.2865 26.0213 32.1372 26.032 31.9665 26.032C31.7532 26.032 31.5185 26.0213 31.2625 26C31.0065 25.9787 30.7505 25.968 30.4945 25.968C30.2385 25.968 29.9825 25.9573 29.7265 25.936C28.7452 27.6853 27.8492 29.2853 27.0385 30.736C26.2492 32.1653 25.6305 33.3067 25.1825 34.16C24.3932 35.632 23.6998 37.0613 23.1025 38.448C22.5052 39.856 21.9932 41.1253 21.5665 42.256C21.1398 43.408 20.8092 44.3787 20.5745 45.168C20.3398 45.9573 20.2012 46.4693 20.1585 46.704C20.1158 46.9387 20.0412 47.088 19.9345 47.152C19.8278 47.216 19.6998 47.2267 19.5505 47.184C19.4225 47.1413 19.2838 47.0667 19.1345 46.96C19.0065 46.8533 18.8892 46.7467 18.7825 46.64C18.6758 46.5333 18.5692 46.2987 18.4625 45.936C18.3772 45.5947 18.4198 44.9973 18.5905 44.144C18.7825 43.2907 19.1665 42.1173 19.7425 40.624C20.3398 39.1307 21.2678 37.1893 22.5265 34.8C23.1878 33.5627 23.9238 32.1867 24.7345 30.672C25.5665 29.1573 26.4412 27.568 27.3585 25.904C25.7585 25.904 24.2332 25.968 22.7825 26.096C21.3318 26.2027 19.9452 26.352 18.6225 26.544C17.4705 27.952 16.4038 29.3173 15.4225 30.64C14.4412 31.9413 13.5772 33.168 12.8305 34.32C11.3158 36.5813 10.1105 38.6293 9.2145 40.464C8.33983 42.2987 7.65717 43.8667 7.1665 45.168C6.61183 46.6827 6.21717 48.0373 5.9825 49.232C5.10783 49.68 4.55317 49.4667 4.3185 48.592C4.10517 47.7173 4.3185 46.2987 4.9585 44.336C5.61983 42.3947 6.76117 39.9627 8.3825 37.04C10.0252 34.1173 12.2652 30.832 15.1025 27.184C13.3318 27.568 11.7425 27.9947 10.3345 28.464C8.9265 28.9333 7.7105 29.3813 6.6865 29.808C5.6625 30.2133 4.84117 30.576 4.2225 30.896C3.62517 31.216 3.2305 31.4187 3.0385 31.504C2.73983 31.6533 2.50517 31.8027 2.3345 31.952C2.16383 32.08 2.03583 32.1973 1.9505 32.304C1.86517 32.432 1.80117 32.56 1.7585 32.688C1.65183 32.8587 1.48117 32.8693 1.2465 32.72C1.03317 32.5493 0.745167 32.336 0.3825 32.08ZM38.5265 5.744C37.5452 6.448 36.3398 7.46133 34.9105 8.784C33.4812 10.1067 31.9452 11.6107 30.3025 13.296C28.6812 14.9813 26.9958 16.8053 25.2465 18.768C23.5185 20.7093 21.8438 22.6507 20.2225 24.592C22.0358 24.3573 23.6465 24.1973 25.0545 24.112C26.4838 24.0053 27.6038 23.952 28.4145 23.952C29.0118 22.8427 29.6198 21.7333 30.2385 20.624C30.8572 19.5147 31.4545 18.4267 32.0305 17.36C32.6278 16.2933 33.1932 15.2693 33.7265 14.288C34.2812 13.3067 34.8038 12.3787 35.2945 11.504C36.4252 9.49866 37.5025 7.57867 38.5265 5.744ZM48.0258 28.4C48.1324 28.336 48.2178 28.3253 48.2818 28.368C48.3458 28.3893 48.3991 28.4213 48.4418 28.464C48.4844 28.5493 48.5058 28.6347 48.5058 28.72C47.0764 30.64 45.8391 32.1013 44.7938 33.104C43.7484 34.0853 42.8844 34.7787 42.2018 35.184C41.3911 35.6747 40.7191 35.9093 40.1858 35.888C39.1191 35.888 38.3724 35.6 37.9458 35.024C37.5404 34.448 37.3591 33.68 37.4018 32.72C36.6978 33.6373 36.0151 34.3947 35.3538 34.992C34.6924 35.5893 34.2124 35.888 33.9138 35.888C33.6791 35.888 33.4124 35.8347 33.1137 35.728C32.8151 35.6 32.5271 35.4293 32.2497 35.216C31.9511 34.9813 31.7057 34.704 31.5137 34.384C31.3217 34.064 31.2257 33.6907 31.2257 33.264C31.2257 32.4107 31.4284 31.6107 31.8337 30.864C32.2177 30.096 32.6657 29.424 33.1777 28.848C33.6898 28.272 34.2018 27.824 34.7138 27.504C35.2471 27.1627 35.6418 26.992 35.8978 26.992C36.4311 26.992 36.9431 27.0987 37.4338 27.312C37.9458 27.504 38.3724 27.7067 38.7138 27.92C39.1831 26.768 39.7484 25.584 40.4098 24.368C41.0711 23.1307 41.7538 21.9253 42.4578 20.752C43.1831 19.5787 43.9084 18.4693 44.6338 17.424C45.3591 16.3787 46.0204 15.4613 46.6178 14.672C47.2364 13.8827 47.7698 13.264 48.2178 12.816C48.6658 12.3467 48.9751 12.112 49.1458 12.112C49.2951 12.112 49.4978 12.144 49.7537 12.208C50.0311 12.2507 50.2978 12.3787 50.5538 12.592C50.8098 12.8053 51.0231 13.1253 51.1938 13.552C51.3858 13.9573 51.4818 14.512 51.4818 15.216C51.4818 16.1973 51.2364 17.1893 50.7458 18.192C50.2551 19.1733 49.6364 20.1333 48.8898 21.072C48.1431 21.9893 47.3218 22.864 46.4258 23.696C45.5298 24.528 44.6764 25.264 43.8658 25.904C43.0551 26.544 42.3404 27.0773 41.7218 27.504C41.1031 27.9093 40.7084 28.1653 40.5378 28.272C40.1751 29.1253 39.8871 29.9253 39.6738 30.672C39.4604 31.3973 39.3431 32.0267 39.3218 32.56C39.3218 33.0933 39.4284 33.52 39.6418 33.84C39.8764 34.1387 40.2498 34.288 40.7618 34.288C41.5084 34.0747 42.2871 33.6587 43.0978 33.04C43.9084 32.4213 44.6551 31.7813 45.3378 31.12C46.0418 30.4373 46.6391 29.8293 47.1298 29.296C47.6204 28.7627 47.9191 28.464 48.0258 28.4ZM49.7858 13.808C49.1671 14.4693 48.4951 15.2693 47.7698 16.208C47.0444 17.1467 46.3084 18.1707 45.5618 19.28C44.8364 20.368 44.1218 21.5093 43.4178 22.704C42.7351 23.8773 42.1058 25.0293 41.5298 26.16C42.6818 25.2427 43.6844 24.368 44.5378 23.536C45.3911 22.6827 46.1164 21.8827 46.7138 21.136C47.3324 20.3893 47.8338 19.696 48.2178 19.056C48.6018 18.3947 48.9111 17.7867 49.1458 17.232C49.6791 15.952 49.8924 14.8107 49.7858 13.808ZM33.2737 34.288C33.4657 34.288 33.7644 34.1067 34.1698 33.744C34.5751 33.3813 35.0231 32.944 35.5138 32.432C36.0044 31.8987 36.4844 31.3547 36.9538 30.8C37.4231 30.2453 37.8178 29.776 38.1378 29.392C38.1591 29.392 38.1698 29.3813 38.1698 29.36C38.0844 29.2747 37.9991 29.2 37.9138 29.136C37.8284 29.0507 37.7431 28.976 37.6578 28.912C37.5724 28.8267 37.4871 28.7627 37.4018 28.72C36.9964 28.72 36.5804 28.8587 36.1538 29.136C35.7484 29.4133 35.3644 29.7547 35.0018 30.16C34.6391 30.5653 34.3191 31.0133 34.0418 31.504C33.7644 31.9947 33.5404 32.4427 33.3697 32.848C33.1991 33.2533 33.1031 33.5947 33.0817 33.872C33.0391 34.1493 33.1031 34.288 33.2737 34.288ZM60.0313 28.72C59.0073 30.1067 58.0793 31.2373 57.2473 32.112C56.4366 32.9867 55.7113 33.6907 55.0713 34.224C54.4313 34.7573 53.8873 35.1413 53.4393 35.376C52.9913 35.6107 52.6286 35.76 52.3513 35.824H52.3193C52.2126 35.8453 52.1166 35.8667 52.0312 35.888C51.9673 35.888 51.8926 35.888 51.8073 35.888H51.7753C51.3059 35.8667 50.9539 35.6533 50.7193 35.248C50.5059 34.8427 50.3993 34.4267 50.3993 34C50.3993 33.8933 50.4099 33.7973 50.4313 33.712C50.4526 33.6267 50.4846 33.5307 50.5273 33.424C49.9299 33.9573 49.3433 34.4373 48.7673 34.864C48.2126 35.2693 47.8179 35.472 47.5832 35.472C47.4126 35.472 47.2099 35.44 46.9753 35.376C46.7192 35.2907 46.4846 35.1413 46.2712 34.928C46.0366 34.7147 45.8446 34.4267 45.6952 34.064C45.5246 33.68 45.4392 33.1893 45.4392 32.592C45.4392 31.696 45.6739 30.9067 46.1432 30.224C46.6126 29.52 47.1672 28.9333 47.8072 28.464C48.4259 27.9733 49.0339 27.6107 49.6313 27.376C50.2499 27.12 50.7086 26.992 51.0073 26.992C51.8819 26.992 52.5539 27.1413 53.0233 27.44C53.5139 27.7173 53.7593 28.0907 53.7593 28.56C53.7593 29.0293 53.6739 29.3387 53.5033 29.488C53.3539 29.6373 53.2259 29.7547 53.1193 29.84C53.0126 29.9253 52.9059 29.9147 52.7993 29.808C52.7566 29.7653 52.7246 29.7227 52.7033 29.68C52.9166 29.4453 53.0446 29.232 53.0873 29.04C53.1299 28.8693 53.0766 28.72 52.9273 28.592C52.7993 28.464 52.5006 28.3787 52.0312 28.336C51.5193 28.3147 50.9753 28.5067 50.3993 28.912C49.8233 29.296 49.3006 29.776 48.8313 30.352C48.3833 30.9067 48.0206 31.4827 47.7432 32.08C47.4659 32.6773 47.3699 33.1467 47.4552 33.488C47.7539 33.552 48.1593 33.4453 48.6713 33.168C49.1833 32.8693 49.6953 32.528 50.2073 32.144C50.7406 31.76 51.2099 31.3973 51.6153 31.056C52.0419 30.7147 52.3086 30.5227 52.4153 30.48C52.5219 30.4373 52.6499 30.448 52.7993 30.512C52.9699 30.576 53.1193 30.672 53.2473 30.8C53.3966 30.9067 53.5139 31.0453 53.5993 31.216C53.7059 31.3653 53.7593 31.5147 53.7593 31.664C53.7593 31.792 53.6953 31.9733 53.5673 32.208C53.4606 32.4427 53.3326 32.688 53.1833 32.944C53.0339 33.2 52.8739 33.4453 52.7033 33.68C52.5539 33.9147 52.4473 34.1067 52.3833 34.256C53.1299 34.0213 53.8979 33.5947 54.6873 32.976C55.4979 32.3573 56.2446 31.7173 56.9273 31.056C57.6313 30.3947 58.2179 29.7973 58.6873 29.264C59.1566 28.7307 59.4446 28.4427 59.5513 28.4C59.6579 28.336 59.7433 28.3253 59.8073 28.368C59.8713 28.3893 59.9246 28.4213 59.9673 28.464C60.0099 28.5493 60.0313 28.6347 60.0313 28.72ZM72.563 16.592C72.5417 16.1227 72.755 15.536 73.203 14.832C73.6723 14.128 74.3123 13.36 75.123 12.528C75.955 11.696 76.9257 10.832 78.035 9.936C79.1443 9.01867 80.3283 8.12267 81.587 7.248C82.867 6.37333 84.179 5.54133 85.523 4.752C86.8883 3.96266 88.2323 3.26933 89.555 2.672C90.8777 2.07466 92.147 1.60533 93.363 1.264C94.579 0.901332 95.6777 0.719997 96.659 0.719997C97.1283 0.805332 97.5123 0.954666 97.811 1.168C98.067 1.33867 98.259 1.59467 98.387 1.936C98.5363 2.256 98.5043 2.66133 98.291 3.152C98.0777 3.664 97.779 4.29333 97.395 5.04C97.011 5.78666 96.4777 6.74666 95.795 7.92C95.1337 9.072 94.2803 10.48 93.235 12.144C92.1897 13.7867 90.8883 15.7493 89.331 18.032C88.563 19.1627 87.6883 20.4427 86.707 21.872C85.747 23.3013 84.7443 24.7947 83.699 26.352C82.675 27.9093 81.6403 29.5093 80.595 31.152C79.5497 32.7947 78.547 34.4053 77.587 35.984C76.6483 37.5413 75.7843 39.0347 74.995 40.464C74.2057 41.8933 73.555 43.184 73.043 44.336C72.531 45.488 72.179 46.4693 71.987 47.28C71.8163 48.112 71.859 48.688 72.115 49.008C72.1577 49.0933 72.1683 49.168 72.147 49.232C72.1257 49.2747 72.0723 49.3173 71.987 49.36C71.923 49.4027 71.795 49.4027 71.603 49.36C71.411 49.3387 71.2083 49.2853 70.995 49.2C70.7817 49.1147 70.5897 48.9973 70.419 48.848C70.2483 48.6987 70.1203 48.5067 70.035 48.272C69.971 48.0373 69.971 47.7387 70.035 47.376C70.0777 47.1413 70.1523 46.7893 70.259 46.32C70.3657 45.872 70.5577 45.2533 70.835 44.464C71.1123 43.696 71.507 42.7467 72.019 41.616C72.531 40.4853 73.203 39.1413 74.035 37.584C74.8883 36.0053 75.9443 34.192 77.203 32.144C78.4617 30.096 79.9763 27.7707 81.747 25.168C84.3923 21.264 86.643 17.936 88.499 15.184C90.355 12.4107 91.859 10.128 93.011 8.336C94.1843 6.52266 95.0377 5.14666 95.571 4.208C96.1043 3.26933 96.371 2.68267 96.371 2.448C95.859 2.40533 95.0803 2.56533 94.035 2.928C93.139 3.22667 91.9017 3.76 90.323 4.528C88.7443 5.296 86.7177 6.43733 84.243 7.952C81.747 9.488 79.827 10.832 78.483 11.984C77.139 13.136 76.1683 14.1067 75.571 14.896C74.867 15.8133 74.4723 16.6027 74.387 17.264C74.4937 17.4987 74.6537 17.7333 74.867 17.968C75.0377 18.16 75.2617 18.352 75.539 18.544C75.8163 18.736 76.1683 18.8853 76.595 18.992C76.595 19.0347 76.5737 19.0773 76.531 19.12C76.4883 19.1627 76.4243 19.1947 76.339 19.216C76.275 19.2373 76.179 19.2267 76.051 19.184C75.731 19.1413 75.3683 19.056 74.963 18.928C74.579 18.7787 74.2057 18.5973 73.843 18.384C73.5017 18.1707 73.203 17.9147 72.947 17.616C72.7123 17.3173 72.5843 16.976 72.563 16.592ZM100.917 28.72C99.9997 29.936 99.157 30.96 98.389 31.792C97.6423 32.6027 96.9597 33.264 96.341 33.776C95.7437 34.288 95.221 34.672 94.773 34.928C94.325 35.184 93.941 35.3653 93.621 35.472C93.2797 35.6427 92.981 35.76 92.725 35.824C92.4903 35.8667 92.2663 35.8667 92.053 35.824C91.861 35.7813 91.6583 35.696 91.445 35.568C91.253 35.4187 91.0397 35.2267 90.805 34.992C90.5703 34.7787 90.453 34.4907 90.453 34.128C90.453 33.7653 90.5277 33.392 90.677 33.008C90.8477 32.6027 91.0503 32.1973 91.285 31.792C91.541 31.3653 91.797 30.9813 92.053 30.64C92.2877 30.2987 92.4583 30.0107 92.565 29.776C92.693 29.5413 92.7783 29.36 92.821 29.232C92.8637 29.0827 92.8637 28.9653 92.821 28.88C91.9463 29.4133 91.093 30.064 90.261 30.832C89.429 31.5787 88.6717 32.304 87.989 33.008C87.1997 33.84 86.453 34.704 85.749 35.6C85.5143 35.6427 85.3117 35.6107 85.141 35.504C84.9703 35.376 84.8317 35.2267 84.725 35.056C84.597 34.864 84.4797 34.6507 84.373 34.416C85.973 30.8107 87.3917 27.76 88.629 25.264C89.8663 22.768 90.9437 20.6987 91.861 19.056C92.7997 17.392 93.589 16.1013 94.229 15.184C94.869 14.2453 95.4023 13.552 95.829 13.104C96.2557 12.6347 96.5863 12.3467 96.821 12.24C97.0557 12.1333 97.2263 12.08 97.333 12.08C97.4823 12.08 97.685 12.112 97.941 12.176C98.2183 12.24 98.485 12.3787 98.741 12.592C98.997 12.8053 99.221 13.1253 99.413 13.552C99.605 13.9573 99.701 14.512 99.701 15.216C99.701 16.048 99.5197 16.8907 99.157 17.744C98.7943 18.5973 98.3143 19.4293 97.717 20.24C97.141 21.0507 96.4797 21.84 95.733 22.608C95.0077 23.3547 94.2717 24.048 93.525 24.688C92.7783 25.328 92.0637 25.904 91.381 26.416C90.7197 26.9067 90.165 27.312 89.717 27.632C89.461 28.1227 89.2263 28.5707 89.013 28.976C88.821 29.36 88.6503 29.7013 88.501 30C88.3303 30.3413 88.1917 30.64 88.085 30.896C88.9597 29.6587 89.8023 28.752 90.613 28.176C91.445 27.6 92.1703 27.2587 92.789 27.152C93.429 27.0453 93.941 27.12 94.325 27.376C94.7303 27.6107 94.9543 27.9307 94.997 28.336C95.0397 28.7413 95.0077 29.1573 94.901 29.584C94.7943 30.0107 94.645 30.4267 94.453 30.832C94.2823 31.2373 94.069 31.6427 93.813 32.048C93.5783 32.432 93.3543 32.7947 93.141 33.136C92.9703 33.392 92.8637 33.5947 92.821 33.744C92.7783 33.872 92.7677 33.968 92.789 34.032C92.8317 34.096 92.885 34.128 92.949 34.128C93.013 34.128 93.077 34.1173 93.141 34.096C93.1837 34.096 93.205 34.096 93.205 34.096C93.2263 34.0747 93.2583 34.064 93.301 34.064C94.0263 33.808 94.7837 33.3813 95.573 32.784C96.3837 32.1653 97.1303 31.5467 97.813 30.928C98.517 30.288 99.1037 29.7227 99.573 29.232C100.042 28.72 100.33 28.4427 100.437 28.4C100.544 28.336 100.629 28.3253 100.693 28.368C100.757 28.3893 100.81 28.4213 100.853 28.464C100.896 28.5493 100.917 28.6347 100.917 28.72ZM97.973 13.808C97.397 14.5547 96.7997 15.3867 96.181 16.304C95.5623 17.2213 94.9543 18.1813 94.357 19.184C93.781 20.1653 93.205 21.1573 92.629 22.16C92.0743 23.1627 91.5517 24.1227 91.061 25.04C93.0023 23.3547 94.4637 21.8293 95.445 20.464C96.4263 19.0987 97.0983 17.9147 97.461 16.912C97.8877 15.76 98.0583 14.7253 97.973 13.808ZM113.589 28.4C113.695 28.336 113.781 28.3253 113.845 28.368C113.909 28.3893 113.962 28.4213 114.005 28.464C114.047 28.5493 114.079 28.6347 114.101 28.72C112.842 30.4053 111.733 31.7173 110.773 32.656C109.813 33.5733 108.991 34.256 108.309 34.704C107.647 35.152 107.114 35.4187 106.709 35.504C106.303 35.5893 106.026 35.632 105.877 35.632C105.471 35.632 105.141 35.5467 104.885 35.376C104.629 35.2053 104.415 35.0027 104.245 34.768C104.053 34.5333 103.903 34.2453 103.797 33.904C103.754 33.5413 103.818 33.136 103.989 32.688C103.477 33.264 103.007 33.7333 102.581 34.096C102.154 34.4373 101.781 34.704 101.461 34.896C101.141 35.088 100.874 35.216 100.661 35.28C100.447 35.344 100.298 35.376 100.213 35.376C100.085 35.376 99.9141 35.344 99.7007 35.28C99.4874 35.1947 99.2847 35.088 99.0927 34.96C98.8794 34.8107 98.7087 34.6293 98.5807 34.416C98.4314 34.2027 98.3568 33.9573 98.3568 33.68C98.3568 33.0827 98.5167 32.4 98.8367 31.632C99.1354 30.864 99.4767 30.1387 99.8607 29.456C100.287 28.6453 100.789 27.8347 101.365 27.024C101.727 26.9813 102.015 27.0347 102.229 27.184C102.442 27.312 102.602 27.4613 102.709 27.632C102.837 27.8453 102.933 28.08 102.997 28.336C102.314 29.36 101.791 30.2347 101.429 30.96C101.087 31.664 100.831 32.24 100.661 32.688C100.469 33.2213 100.362 33.648 100.341 33.968C100.725 33.8187 101.151 33.5733 101.621 33.232C102.09 32.8693 102.559 32.4747 103.029 32.048C103.498 31.6 103.946 31.1413 104.373 30.672C104.821 30.2027 105.205 29.7867 105.525 29.424C105.695 29.1253 105.855 28.848 106.005 28.592C106.175 28.336 106.325 28.112 106.453 27.92C106.581 27.6853 106.709 27.4827 106.837 27.312C107.327 27.3973 107.658 27.5253 107.829 27.696C108.021 27.8667 108.138 28.0373 108.181 28.208C108.223 28.4213 108.191 28.656 108.085 28.912C107.423 30.1493 106.933 31.12 106.613 31.824C106.314 32.528 106.101 33.0613 105.973 33.424C105.866 33.7653 105.823 33.9893 105.845 34.096C105.887 34.1813 105.909 34.224 105.909 34.224C106.399 34.1387 106.922 33.936 107.477 33.616C108.053 33.296 108.607 32.9333 109.141 32.528C109.695 32.1013 110.218 31.6533 110.709 31.184C111.221 30.7147 111.679 30.288 112.085 29.904C112.49 29.4987 112.821 29.1573 113.077 28.88C113.354 28.6027 113.525 28.4427 113.589 28.4ZM122.617 28.688C121.764 29.8187 120.974 30.7787 120.249 31.568C119.545 32.3573 118.905 33.008 118.329 33.52C117.753 34.032 117.23 34.4373 116.761 34.736C116.313 35.0133 115.929 35.216 115.609 35.344C115.524 35.3867 115.342 35.4613 115.065 35.568C114.788 35.6747 114.457 35.7707 114.073 35.856C113.71 35.9413 113.326 35.9947 112.921 36.016C112.494 36.0373 112.11 35.9733 111.769 35.824C111.406 35.6533 111.118 35.3867 110.905 35.024C110.67 34.64 110.553 34.096 110.553 33.392C110.553 32.3467 110.83 31.4293 111.385 30.64C111.918 29.8293 112.537 29.1573 113.241 28.624C113.945 28.0907 114.628 27.6853 115.289 27.408C115.95 27.1307 116.388 26.992 116.601 26.992C116.814 26.992 117.028 27.024 117.241 27.088C117.476 27.152 117.689 27.2587 117.881 27.408C118.073 27.536 118.233 27.7173 118.361 27.952C118.489 28.1653 118.553 28.4213 118.553 28.72C118.553 29.0187 118.446 29.4027 118.233 29.872C118.02 30.3413 117.732 30.7893 117.369 31.216C117.028 31.6427 116.622 32.016 116.153 32.336C115.705 32.6347 115.246 32.784 114.777 32.784C114.222 32.784 113.806 32.688 113.529 32.496C113.23 32.304 113.017 32.1013 112.889 31.888C112.654 32.2507 112.526 32.56 112.505 32.816C112.462 33.0507 112.441 33.2 112.441 33.264C112.441 33.392 112.473 33.5947 112.537 33.872C112.58 34.128 112.75 34.2773 113.049 34.32C113.454 34.3627 113.785 34.3627 114.041 34.32C114.297 34.2773 114.66 34.16 115.129 33.968C115.62 33.776 116.121 33.5093 116.633 33.168C117.166 32.8267 117.678 32.4533 118.169 32.048C118.66 31.6427 119.129 31.2267 119.577 30.8C120.046 30.3733 120.452 29.9893 120.793 29.648C121.156 29.3067 121.454 29.0187 121.689 28.784C121.924 28.5493 122.073 28.4107 122.137 28.368C122.244 28.304 122.329 28.2933 122.393 28.336C122.457 28.3573 122.51 28.3893 122.553 28.432C122.596 28.5173 122.617 28.6027 122.617 28.688ZM116.601 29.008C115.79 29.4133 115.118 29.808 114.585 30.192C114.073 30.5547 113.668 30.9067 113.369 31.248C113.86 31.4187 114.308 31.3973 114.713 31.184C115.118 30.9493 115.46 30.672 115.737 30.352C116.057 29.968 116.345 29.52 116.601 29.008ZM133.997 28.752C133.357 29.712 132.493 30.7467 131.405 31.856C130.338 32.944 129.218 34.0533 128.045 35.184C128.088 35.4187 128.12 35.664 128.141 35.92C128.162 36.176 128.173 36.4533 128.173 36.752C128.173 37.4347 128.013 38.1173 127.693 38.8C127.394 39.4827 127 40.1333 126.509 40.752C126.018 41.3707 125.485 41.936 124.909 42.448C124.333 42.9813 123.778 43.44 123.245 43.824C122.712 44.2293 122.242 44.5387 121.837 44.752C121.41 44.9653 121.122 45.072 120.973 45.072C120.738 45.072 120.504 45.04 120.269 44.976C120.013 44.912 119.778 44.8053 119.565 44.656C119.352 44.528 119.181 44.3573 119.053 44.144C118.925 43.9307 118.861 43.6853 118.861 43.408C118.861 42.768 119.064 42.1173 119.469 41.456C119.853 40.816 120.386 40.144 121.069 39.44C121.73 38.7573 122.509 38.0533 123.405 37.328C124.301 36.6027 125.25 35.8347 126.253 35.024C126.104 34.5333 125.89 34.192 125.613 34C125.357 33.808 125.09 33.6907 124.813 33.648C124.493 33.584 124.152 33.6053 123.789 33.712C123.49 33.6693 123.256 33.5947 123.085 33.488C122.936 33.3813 122.829 33.264 122.765 33.136C122.68 32.9867 122.637 32.8267 122.637 32.656C123.448 32.0373 124.066 31.472 124.493 30.96C124.941 30.4267 125.272 29.968 125.485 29.584C125.72 29.136 125.858 28.7307 125.901 28.368C125.858 28.3467 125.709 28.3893 125.453 28.496C125.197 28.5813 124.898 28.72 124.557 28.912C124.237 29.0827 123.906 29.2747 123.565 29.488C123.224 29.68 122.946 29.8507 122.733 30C122.498 30.1707 122.349 30.32 122.285 30.448C122.221 30.576 122.189 30.704 122.189 30.832C122.21 30.9387 122.242 31.0347 122.285 31.12C122.328 31.2053 122.36 31.28 122.381 31.344C122.381 31.472 122.338 31.5787 122.253 31.664C122.21 31.7067 122.157 31.7387 122.093 31.76C121.837 31.8453 121.613 31.856 121.421 31.792C121.25 31.7493 121.101 31.6427 120.973 31.472C120.824 31.3013 120.749 31.0027 120.749 30.576C120.749 30.1707 120.941 29.7333 121.325 29.264C121.709 28.7947 122.168 28.368 122.701 27.984C123.234 27.6 123.768 27.28 124.301 27.024C124.834 26.768 125.25 26.64 125.549 26.64C125.741 26.64 125.965 26.672 126.221 26.736C126.477 26.8 126.712 26.9173 126.925 27.088C127.138 27.2587 127.32 27.4933 127.469 27.792C127.618 28.0693 127.693 28.432 127.693 28.88C127.693 29.328 127.565 29.7653 127.309 30.192C127.074 30.6187 126.808 31.0027 126.509 31.344C126.168 31.728 125.784 32.1013 125.357 32.464C125.464 32.464 125.602 32.4747 125.773 32.496C125.965 32.5173 126.168 32.5813 126.381 32.688C126.594 32.7733 126.808 32.912 127.021 33.104C127.256 33.296 127.458 33.5627 127.629 33.904C128.632 33.0933 129.624 32.24 130.605 31.344C131.608 30.4267 132.578 29.456 133.517 28.432C133.645 28.5813 133.762 28.6773 133.869 28.72C133.933 28.7413 133.976 28.752 133.997 28.752ZM120.429 43.408C120.493 43.5573 120.674 43.5787 120.973 43.472C121.25 43.3653 121.592 43.152 121.997 42.832C122.402 42.5333 122.84 42.1493 123.309 41.68C123.778 41.232 124.216 40.7307 124.621 40.176C125.048 39.6427 125.41 39.088 125.709 38.512C126.029 37.936 126.242 37.3707 126.349 36.816C125.56 37.5627 124.802 38.2773 124.077 38.96C123.373 39.6427 122.744 40.272 122.189 40.848C121.656 41.424 121.229 41.9253 120.909 42.352C120.589 42.8 120.429 43.152 120.429 43.408ZM142.492 28.688C141.639 29.8187 140.849 30.7787 140.124 31.568C139.42 32.3573 138.78 33.008 138.204 33.52C137.628 34.032 137.105 34.4373 136.636 34.736C136.188 35.0133 135.804 35.216 135.484 35.344C135.399 35.3867 135.217 35.4613 134.94 35.568C134.663 35.6747 134.332 35.7707 133.948 35.856C133.585 35.9413 133.201 35.9947 132.796 36.016C132.369 36.0373 131.985 35.9733 131.644 35.824C131.281 35.6533 130.993 35.3867 130.78 35.024C130.545 34.64 130.428 34.096 130.428 33.392C130.428 32.3467 130.705 31.4293 131.26 30.64C131.793 29.8293 132.412 29.1573 133.116 28.624C133.82 28.0907 134.503 27.6853 135.164 27.408C135.825 27.1307 136.263 26.992 136.476 26.992C136.689 26.992 136.903 27.024 137.116 27.088C137.351 27.152 137.564 27.2587 137.756 27.408C137.948 27.536 138.108 27.7173 138.236 27.952C138.364 28.1653 138.428 28.4213 138.428 28.72C138.428 29.0187 138.321 29.4027 138.108 29.872C137.895 30.3413 137.607 30.7893 137.244 31.216C136.903 31.6427 136.497 32.016 136.028 32.336C135.58 32.6347 135.121 32.784 134.652 32.784C134.097 32.784 133.681 32.688 133.404 32.496C133.105 32.304 132.892 32.1013 132.764 31.888C132.529 32.2507 132.401 32.56 132.38 32.816C132.337 33.0507 132.316 33.2 132.316 33.264C132.316 33.392 132.348 33.5947 132.412 33.872C132.455 34.128 132.625 34.2773 132.924 34.32C133.329 34.3627 133.66 34.3627 133.916 34.32C134.172 34.2773 134.535 34.16 135.004 33.968C135.495 33.776 135.996 33.5093 136.508 33.168C137.041 32.8267 137.553 32.4533 138.044 32.048C138.535 31.6427 139.004 31.2267 139.452 30.8C139.921 30.3733 140.327 29.9893 140.668 29.648C141.031 29.3067 141.329 29.0187 141.564 28.784C141.799 28.5493 141.948 28.4107 142.012 28.368C142.119 28.304 142.204 28.2933 142.268 28.336C142.332 28.3573 142.385 28.3893 142.428 28.432C142.471 28.5173 142.492 28.6027 142.492 28.688ZM136.476 29.008C135.665 29.4133 134.993 29.808 134.46 30.192C133.948 30.5547 133.543 30.9067 133.244 31.248C133.735 31.4187 134.183 31.3973 134.588 31.184C134.993 30.9493 135.335 30.672 135.612 30.352C135.932 29.968 136.22 29.52 136.476 29.008Z" fill="#1F1F1F"/>
</svg>
