<svg width="61" height="50" viewBox="0 0 61 50" fill="none" xmlns="http://www.w3.org/2000/svg">
<path d="M58.185 0.889681C55.8718 2.31317 53.2028 3.3807 50.3558 3.91451C48.0426 1.4234 44.8398 0 41.2811 0C34.5195 0 29.0035 5.69391 29.0035 12.6334C29.0035 13.701 29.1815 14.5907 29.3595 15.4804C19.0392 14.9465 9.96433 9.96429 3.91451 2.31304C2.84689 4.27034 2.31304 6.40574 2.31304 8.71891C2.31304 13.1673 4.44823 16.9038 7.82901 19.217C5.87172 19.217 3.91446 18.5054 2.31304 17.6157V17.7936C2.31304 23.8434 6.58346 29.0036 12.2774 30.2491C11.2098 30.605 10.1423 30.6049 9.0747 30.6049C8.36295 30.6049 7.47319 30.605 6.76144 30.427C8.36287 35.4092 12.8113 39.1459 18.3273 39.1459C14.0568 42.5267 8.71878 44.484 3.02483 44.484C1.95721 44.484 1.06762 44.4841 0 44.3061C5.51602 47.8649 11.9217 50 18.8612 50C41.4591 50 53.9145 30.783 53.9145 14.057C53.9145 13.5232 53.9145 12.9893 53.9145 12.4555C56.4056 10.6762 58.3629 8.36287 60.1423 5.87176C58.007 6.93938 55.5159 7.47336 53.0248 7.82923C55.338 6.40574 57.2953 3.91459 58.185 0.889681Z" fill="#333333"/>
</svg>
